<?xml version="1.0" encoding="utf-8" standalone="no"?>
<!DOCTYPE svg PUBLIC "-//W3C//DTD SVG 1.1//EN"
  "http://www.w3.org/Graphics/SVG/1.1/DTD/svg11.dtd">
<svg xmlns:xlink="http://www.w3.org/1999/xlink" width="948.244687pt" height="253.393906pt" viewBox="0 0 948.244687 253.393906" xmlns="http://www.w3.org/2000/svg" version="1.1">
 <metadata>
  <rdf:RDF xmlns:dc="http://purl.org/dc/elements/1.1/" xmlns:cc="http://creativecommons.org/ns#" xmlns:rdf="http://www.w3.org/1999/02/22-rdf-syntax-ns#">
   <cc:Work>
    <dc:type rdf:resource="http://purl.org/dc/dcmitype/StillImage"/>
    <dc:date>2024-10-24T16:50:09.505609</dc:date>
    <dc:format>image/svg+xml</dc:format>
    <dc:creator>
     <cc:Agent>
      <dc:title>Matplotlib v3.7.0, https://matplotlib.org/</dc:title>
     </cc:Agent>
    </dc:creator>
   </cc:Work>
  </rdf:RDF>
 </metadata>
 <defs>
  <style type="text/css">*{stroke-linejoin: round; stroke-linecap: butt}</style>
 </defs>
 <g id="figure_1">
  <g id="patch_1">
   <path d="M 0 253.393906 
L 948.244687 253.393906 
L 948.244687 0 
L 0 0 
z
" style="fill: #ffffff"/>
  </g>
  <g id="axes_1">
   <g id="patch_2">
    <path d="M 85.974688 187.016719 
L 285.260402 187.016719 
L 285.260402 23.936719 
L 85.974688 23.936719 
z
" style="fill: #ffffff"/>
   </g>
   <g id="patch_3">
    <path d="M 85.974688 187.016719 
L 92.617545 187.016719 
L 92.617545 187.016719 
L 85.974688 187.016719 
z
" clip-path="url(#p1d2b0db452)" style="fill: #1f77b4; stroke: #000000; stroke-width: 1.2; stroke-linejoin: miter"/>
   </g>
   <g id="patch_4">
    <path d="M 92.617545 187.016719 
L 99.260402 187.016719 
L 99.260402 187.016719 
L 92.617545 187.016719 
z
" clip-path="url(#p1d2b0db452)" style="fill: #1f77b4; stroke: #000000; stroke-width: 1.2; stroke-linejoin: miter"/>
   </g>
   <g id="patch_5">
    <path d="M 99.260402 187.016719 
L 105.903259 187.016719 
L 105.903259 187.016719 
L 99.260402 187.016719 
z
" clip-path="url(#p1d2b0db452)" style="fill: #1f77b4; stroke: #000000; stroke-width: 1.2; stroke-linejoin: miter"/>
   </g>
   <g id="patch_6">
    <path d="M 105.903259 187.016719 
L 112.546116 187.016719 
L 112.546116 187.016719 
L 105.903259 187.016719 
z
" clip-path="url(#p1d2b0db452)" style="fill: #1f77b4; stroke: #000000; stroke-width: 1.2; stroke-linejoin: miter"/>
   </g>
   <g id="patch_7">
    <path d="M 112.546116 187.016719 
L 119.188973 187.016719 
L 119.188973 187.016719 
L 112.546116 187.016719 
z
" clip-path="url(#p1d2b0db452)" style="fill: #1f77b4; stroke: #000000; stroke-width: 1.2; stroke-linejoin: miter"/>
   </g>
   <g id="patch_8">
    <path d="M 119.188973 187.016719 
L 125.83183 187.016719 
L 125.83183 187.016719 
L 119.188973 187.016719 
z
" clip-path="url(#p1d2b0db452)" style="fill: #1f77b4; stroke: #000000; stroke-width: 1.2; stroke-linejoin: miter"/>
   </g>
   <g id="patch_9">
    <path d="M 125.83183 187.016719 
L 132.474687 187.016719 
L 132.474687 187.016719 
L 125.83183 187.016719 
z
" clip-path="url(#p1d2b0db452)" style="fill: #1f77b4; stroke: #000000; stroke-width: 1.2; stroke-linejoin: miter"/>
   </g>
   <g id="patch_10">
    <path d="M 132.474688 187.016719 
L 139.117545 187.016719 
L 139.117545 187.016719 
L 132.474688 187.016719 
z
" clip-path="url(#p1d2b0db452)" style="fill: #1f77b4; stroke: #000000; stroke-width: 1.2; stroke-linejoin: miter"/>
   </g>
   <g id="patch_11">
    <path d="M 139.117545 187.016719 
L 145.760402 187.016719 
L 145.760402 187.016719 
L 139.117545 187.016719 
z
" clip-path="url(#p1d2b0db452)" style="fill: #1f77b4; stroke: #000000; stroke-width: 1.2; stroke-linejoin: miter"/>
   </g>
   <g id="patch_12">
    <path d="M 145.760402 187.016719 
L 152.403259 187.016719 
L 152.403259 187.016719 
L 145.760402 187.016719 
z
" clip-path="url(#p1d2b0db452)" style="fill: #1f77b4; stroke: #000000; stroke-width: 1.2; stroke-linejoin: miter"/>
   </g>
   <g id="patch_13">
    <path d="M 152.403259 187.016719 
L 159.046116 187.016719 
L 159.046116 187.016719 
L 152.403259 187.016719 
z
" clip-path="url(#p1d2b0db452)" style="fill: #1f77b4; stroke: #000000; stroke-width: 1.2; stroke-linejoin: miter"/>
   </g>
   <g id="patch_14">
    <path d="M 159.046116 187.016719 
L 165.688973 187.016719 
L 165.688973 187.016719 
L 159.046116 187.016719 
z
" clip-path="url(#p1d2b0db452)" style="fill: #1f77b4; stroke: #000000; stroke-width: 1.2; stroke-linejoin: miter"/>
   </g>
   <g id="patch_15">
    <path d="M 165.688973 187.016719 
L 172.33183 187.016719 
L 172.33183 187.016719 
L 165.688973 187.016719 
z
" clip-path="url(#p1d2b0db452)" style="fill: #1f77b4; stroke: #000000; stroke-width: 1.2; stroke-linejoin: miter"/>
   </g>
   <g id="patch_16">
    <path d="M 172.33183 187.016719 
L 178.974688 187.016719 
L 178.974688 187.016719 
L 172.33183 187.016719 
z
" clip-path="url(#p1d2b0db452)" style="fill: #1f77b4; stroke: #000000; stroke-width: 1.2; stroke-linejoin: miter"/>
   </g>
   <g id="patch_17">
    <path d="M 178.974688 187.016719 
L 185.617545 187.016719 
L 185.617545 187.016719 
L 178.974688 187.016719 
z
" clip-path="url(#p1d2b0db452)" style="fill: #1f77b4; stroke: #000000; stroke-width: 1.2; stroke-linejoin: miter"/>
   </g>
   <g id="patch_18">
    <path d="M 185.617545 187.016719 
L 192.260402 187.016719 
L 192.260402 187.016719 
L 185.617545 187.016719 
z
" clip-path="url(#p1d2b0db452)" style="fill: #1f77b4; stroke: #000000; stroke-width: 1.2; stroke-linejoin: miter"/>
   </g>
   <g id="patch_19">
    <path d="M 192.260402 187.016719 
L 198.903259 187.016719 
L 198.903259 187.016719 
L 192.260402 187.016719 
z
" clip-path="url(#p1d2b0db452)" style="fill: #1f77b4; stroke: #000000; stroke-width: 1.2; stroke-linejoin: miter"/>
   </g>
   <g id="patch_20">
    <path d="M 198.903259 187.016719 
L 205.546116 187.016719 
L 205.546116 187.016719 
L 198.903259 187.016719 
z
" clip-path="url(#p1d2b0db452)" style="fill: #1f77b4; stroke: #000000; stroke-width: 1.2; stroke-linejoin: miter"/>
   </g>
   <g id="patch_21">
    <path d="M 205.546116 187.016719 
L 212.188973 187.016719 
L 212.188973 187.016719 
L 205.546116 187.016719 
z
" clip-path="url(#p1d2b0db452)" style="fill: #1f77b4; stroke: #000000; stroke-width: 1.2; stroke-linejoin: miter"/>
   </g>
   <g id="patch_22">
    <path d="M 212.188973 187.016719 
L 218.83183 187.016719 
L 218.83183 153.066109 
L 212.188973 153.066109 
z
" clip-path="url(#p1d2b0db452)" style="fill: #1f77b4; stroke: #000000; stroke-width: 1.2; stroke-linejoin: miter"/>
   </g>
   <g id="patch_23">
    <path d="M 218.83183 187.016719 
L 225.474688 187.016719 
L 225.474688 31.702433 
L 218.83183 31.702433 
z
" clip-path="url(#p1d2b0db452)" style="fill: #1f77b4; stroke: #000000; stroke-width: 1.2; stroke-linejoin: miter"/>
   </g>
   <g id="patch_24">
    <path d="M 225.474688 187.016719 
L 232.117545 187.016719 
L 232.117545 181.163165 
L 225.474688 181.163165 
z
" clip-path="url(#p1d2b0db452)" style="fill: #1f77b4; stroke: #000000; stroke-width: 1.2; stroke-linejoin: miter"/>
   </g>
   <g id="patch_25">
    <path d="M 232.117545 187.016719 
L 238.760402 187.016719 
L 238.760402 187.016719 
L 232.117545 187.016719 
z
" clip-path="url(#p1d2b0db452)" style="fill: #1f77b4; stroke: #000000; stroke-width: 1.2; stroke-linejoin: miter"/>
   </g>
   <g id="patch_26">
    <path d="M 238.760402 187.016719 
L 245.403259 187.016719 
L 245.403259 187.016719 
L 238.760402 187.016719 
z
" clip-path="url(#p1d2b0db452)" style="fill: #1f77b4; stroke: #000000; stroke-width: 1.2; stroke-linejoin: miter"/>
   </g>
   <g id="patch_27">
    <path d="M 245.403259 187.016719 
L 252.046116 187.016719 
L 252.046116 187.016719 
L 245.403259 187.016719 
z
" clip-path="url(#p1d2b0db452)" style="fill: #1f77b4; stroke: #000000; stroke-width: 1.2; stroke-linejoin: miter"/>
   </g>
   <g id="patch_28">
    <path d="M 252.046116 187.016719 
L 258.688973 187.016719 
L 258.688973 187.016719 
L 252.046116 187.016719 
z
" clip-path="url(#p1d2b0db452)" style="fill: #1f77b4; stroke: #000000; stroke-width: 1.2; stroke-linejoin: miter"/>
   </g>
   <g id="patch_29">
    <path d="M 258.688973 187.016719 
L 265.33183 187.016719 
L 265.33183 187.016719 
L 258.688973 187.016719 
z
" clip-path="url(#p1d2b0db452)" style="fill: #1f77b4; stroke: #000000; stroke-width: 1.2; stroke-linejoin: miter"/>
   </g>
   <g id="patch_30">
    <path d="M 265.33183 187.016719 
L 271.974687 187.016719 
L 271.974687 187.016719 
L 265.33183 187.016719 
z
" clip-path="url(#p1d2b0db452)" style="fill: #1f77b4; stroke: #000000; stroke-width: 1.2; stroke-linejoin: miter"/>
   </g>
   <g id="patch_31">
    <path d="M 271.974688 187.016719 
L 278.617545 187.016719 
L 278.617545 187.016719 
L 271.974688 187.016719 
z
" clip-path="url(#p1d2b0db452)" style="fill: #1f77b4; stroke: #000000; stroke-width: 1.2; stroke-linejoin: miter"/>
   </g>
   <g id="patch_32">
    <path d="M 278.617545 187.016719 
L 285.260402 187.016719 
L 285.260402 187.016719 
L 278.617545 187.016719 
z
" clip-path="url(#p1d2b0db452)" style="fill: #1f77b4; stroke: #000000; stroke-width: 1.2; stroke-linejoin: miter"/>
   </g>
   <g id="matplotlib.axis_1">
    <g id="xtick_1">
     <g id="line2d_1">
      <defs>
       <path id="mf446427e64" d="M 0 0 
L 0 3.5 
" style="stroke: #000000; stroke-width: 0.8"/>
      </defs>
      <g>
       <use xlink:href="#mf446427e64" x="104.091571" y="187.016719" style="stroke: #000000; stroke-width: 0.8"/>
      </g>
     </g>
     <g id="text_1">
      <!-- 0.0 -->
      <g transform="translate(86.021571 212.627031) scale(0.26 -0.26)">
       <defs>
        <path id="ArialMT-30" d="M 266 2259 
Q 266 3072 433 3567 
Q 600 4063 929 4331 
Q 1259 4600 1759 4600 
Q 2128 4600 2406 4451 
Q 2684 4303 2865 4023 
Q 3047 3744 3150 3342 
Q 3253 2941 3253 2259 
Q 3253 1453 3087 958 
Q 2922 463 2592 192 
Q 2263 -78 1759 -78 
Q 1097 -78 719 397 
Q 266 969 266 2259 
z
M 844 2259 
Q 844 1131 1108 757 
Q 1372 384 1759 384 
Q 2147 384 2411 759 
Q 2675 1134 2675 2259 
Q 2675 3391 2411 3762 
Q 2147 4134 1753 4134 
Q 1366 4134 1134 3806 
Q 844 3388 844 2259 
z
" transform="scale(0.015625)"/>
        <path id="ArialMT-2e" d="M 581 0 
L 581 641 
L 1222 641 
L 1222 0 
L 581 0 
z
" transform="scale(0.015625)"/>
       </defs>
       <use xlink:href="#ArialMT-30"/>
       <use xlink:href="#ArialMT-2e" x="55.615234"/>
       <use xlink:href="#ArialMT-30" x="83.398438"/>
      </g>
     </g>
    </g>
    <g id="xtick_2">
     <g id="line2d_2">
      <g>
       <use xlink:href="#mf446427e64" x="194.675986" y="187.016719" style="stroke: #000000; stroke-width: 0.8"/>
      </g>
     </g>
     <g id="text_2">
      <!-- 0.5 -->
      <g transform="translate(176.605986 212.627031) scale(0.26 -0.26)">
       <defs>
        <path id="ArialMT-35" d="M 266 1200 
L 856 1250 
Q 922 819 1161 601 
Q 1400 384 1738 384 
Q 2144 384 2425 690 
Q 2706 997 2706 1503 
Q 2706 1984 2436 2262 
Q 2166 2541 1728 2541 
Q 1456 2541 1237 2417 
Q 1019 2294 894 2097 
L 366 2166 
L 809 4519 
L 3088 4519 
L 3088 3981 
L 1259 3981 
L 1013 2750 
Q 1425 3038 1878 3038 
Q 2478 3038 2890 2622 
Q 3303 2206 3303 1553 
Q 3303 931 2941 478 
Q 2500 -78 1738 -78 
Q 1113 -78 717 272 
Q 322 622 266 1200 
z
" transform="scale(0.015625)"/>
       </defs>
       <use xlink:href="#ArialMT-30"/>
       <use xlink:href="#ArialMT-2e" x="55.615234"/>
       <use xlink:href="#ArialMT-35" x="83.398438"/>
      </g>
     </g>
    </g>
    <g id="xtick_3">
     <g id="line2d_3">
      <g>
       <use xlink:href="#mf446427e64" x="285.260402" y="187.016719" style="stroke: #000000; stroke-width: 0.8"/>
      </g>
     </g>
     <g id="text_3">
      <!-- 1.0 -->
      <g transform="translate(267.190402 212.627031) scale(0.26 -0.26)">
       <defs>
        <path id="ArialMT-31" d="M 2384 0 
L 1822 0 
L 1822 3584 
Q 1619 3391 1289 3197 
Q 959 3003 697 2906 
L 697 3450 
Q 1169 3672 1522 3987 
Q 1875 4303 2022 4600 
L 2384 4600 
L 2384 0 
z
" transform="scale(0.015625)"/>
       </defs>
       <use xlink:href="#ArialMT-31"/>
       <use xlink:href="#ArialMT-2e" x="55.615234"/>
       <use xlink:href="#ArialMT-30" x="83.398438"/>
      </g>
     </g>
    </g>
    <g id="text_4">
     <!-- ATE (a.u.) -->
     <g transform="translate(127.343013 240.721719) scale(0.26 -0.26)">
      <defs>
       <path id="ArialMT-41" d="M -9 0 
L 1750 4581 
L 2403 4581 
L 4278 0 
L 3588 0 
L 3053 1388 
L 1138 1388 
L 634 0 
L -9 0 
z
M 1313 1881 
L 2866 1881 
L 2388 3150 
Q 2169 3728 2063 4100 
Q 1975 3659 1816 3225 
L 1313 1881 
z
" transform="scale(0.015625)"/>
       <path id="ArialMT-54" d="M 1659 0 
L 1659 4041 
L 150 4041 
L 150 4581 
L 3781 4581 
L 3781 4041 
L 2266 4041 
L 2266 0 
L 1659 0 
z
" transform="scale(0.015625)"/>
       <path id="ArialMT-45" d="M 506 0 
L 506 4581 
L 3819 4581 
L 3819 4041 
L 1113 4041 
L 1113 2638 
L 3647 2638 
L 3647 2100 
L 1113 2100 
L 1113 541 
L 3925 541 
L 3925 0 
L 506 0 
z
" transform="scale(0.015625)"/>
       <path id="ArialMT-20" transform="scale(0.015625)"/>
       <path id="ArialMT-28" d="M 1497 -1347 
Q 1031 -759 709 28 
Q 388 816 388 1659 
Q 388 2403 628 3084 
Q 909 3875 1497 4659 
L 1900 4659 
Q 1522 4009 1400 3731 
Q 1209 3300 1100 2831 
Q 966 2247 966 1656 
Q 966 153 1900 -1347 
L 1497 -1347 
z
" transform="scale(0.015625)"/>
       <path id="ArialMT-61" d="M 2588 409 
Q 2275 144 1986 34 
Q 1697 -75 1366 -75 
Q 819 -75 525 192 
Q 231 459 231 875 
Q 231 1119 342 1320 
Q 453 1522 633 1644 
Q 813 1766 1038 1828 
Q 1203 1872 1538 1913 
Q 2219 1994 2541 2106 
Q 2544 2222 2544 2253 
Q 2544 2597 2384 2738 
Q 2169 2928 1744 2928 
Q 1347 2928 1158 2789 
Q 969 2650 878 2297 
L 328 2372 
Q 403 2725 575 2942 
Q 747 3159 1072 3276 
Q 1397 3394 1825 3394 
Q 2250 3394 2515 3294 
Q 2781 3194 2906 3042 
Q 3031 2891 3081 2659 
Q 3109 2516 3109 2141 
L 3109 1391 
Q 3109 606 3145 398 
Q 3181 191 3288 0 
L 2700 0 
Q 2613 175 2588 409 
z
M 2541 1666 
Q 2234 1541 1622 1453 
Q 1275 1403 1131 1340 
Q 988 1278 909 1158 
Q 831 1038 831 891 
Q 831 666 1001 516 
Q 1172 366 1500 366 
Q 1825 366 2078 508 
Q 2331 650 2450 897 
Q 2541 1088 2541 1459 
L 2541 1666 
z
" transform="scale(0.015625)"/>
       <path id="ArialMT-75" d="M 2597 0 
L 2597 488 
Q 2209 -75 1544 -75 
Q 1250 -75 995 37 
Q 741 150 617 320 
Q 494 491 444 738 
Q 409 903 409 1263 
L 409 3319 
L 972 3319 
L 972 1478 
Q 972 1038 1006 884 
Q 1059 663 1231 536 
Q 1403 409 1656 409 
Q 1909 409 2131 539 
Q 2353 669 2445 892 
Q 2538 1116 2538 1541 
L 2538 3319 
L 3100 3319 
L 3100 0 
L 2597 0 
z
" transform="scale(0.015625)"/>
       <path id="ArialMT-29" d="M 791 -1347 
L 388 -1347 
Q 1322 153 1322 1656 
Q 1322 2244 1188 2822 
Q 1081 3291 891 3722 
Q 769 4003 388 4659 
L 791 4659 
Q 1378 3875 1659 3084 
Q 1900 2403 1900 1659 
Q 1900 816 1576 28 
Q 1253 -759 791 -1347 
z
" transform="scale(0.015625)"/>
      </defs>
      <use xlink:href="#ArialMT-41"/>
      <use xlink:href="#ArialMT-54" x="59.324219"/>
      <use xlink:href="#ArialMT-45" x="120.408203"/>
      <use xlink:href="#ArialMT-20" x="187.107422"/>
      <use xlink:href="#ArialMT-28" x="214.890625"/>
      <use xlink:href="#ArialMT-61" x="248.191406"/>
      <use xlink:href="#ArialMT-2e" x="303.806641"/>
      <use xlink:href="#ArialMT-75" x="331.589844"/>
      <use xlink:href="#ArialMT-2e" x="387.205078"/>
      <use xlink:href="#ArialMT-29" x="414.988281"/>
     </g>
    </g>
   </g>
   <g id="matplotlib.axis_2">
    <g id="ytick_1">
     <g id="line2d_4">
      <defs>
       <path id="m0e3c4e01a4" d="M 0 0 
L -3.5 0 
" style="stroke: #000000; stroke-width: 0.8"/>
      </defs>
      <g>
       <use xlink:href="#m0e3c4e01a4" x="85.974688" y="187.016719" style="stroke: #000000; stroke-width: 0.8"/>
      </g>
     </g>
     <g id="text_5">
      <!-- 0 -->
      <g transform="translate(64.51625 196.321875) scale(0.26 -0.26)">
       <use xlink:href="#ArialMT-30"/>
      </g>
     </g>
    </g>
    <g id="ytick_2">
     <g id="line2d_5">
      <g>
       <use xlink:href="#m0e3c4e01a4" x="85.974688" y="89.457494" style="stroke: #000000; stroke-width: 0.8"/>
      </g>
     </g>
     <g id="text_6">
      <!-- 500 -->
      <g transform="translate(35.599375 98.76265) scale(0.26 -0.26)">
       <use xlink:href="#ArialMT-35"/>
       <use xlink:href="#ArialMT-30" x="55.615234"/>
       <use xlink:href="#ArialMT-30" x="111.230469"/>
      </g>
     </g>
    </g>
    <g id="text_7">
     <!-- frequency (a.u.) -->
     <g transform="translate(26.127188 196.513281) rotate(-90) scale(0.26 -0.26)">
      <defs>
       <path id="ArialMT-66" d="M 556 0 
L 556 2881 
L 59 2881 
L 59 3319 
L 556 3319 
L 556 3672 
Q 556 4006 616 4169 
Q 697 4388 901 4523 
Q 1106 4659 1475 4659 
Q 1713 4659 2000 4603 
L 1916 4113 
Q 1741 4144 1584 4144 
Q 1328 4144 1222 4034 
Q 1116 3925 1116 3625 
L 1116 3319 
L 1763 3319 
L 1763 2881 
L 1116 2881 
L 1116 0 
L 556 0 
z
" transform="scale(0.015625)"/>
       <path id="ArialMT-72" d="M 416 0 
L 416 3319 
L 922 3319 
L 922 2816 
Q 1116 3169 1280 3281 
Q 1444 3394 1641 3394 
Q 1925 3394 2219 3213 
L 2025 2691 
Q 1819 2813 1613 2813 
Q 1428 2813 1281 2702 
Q 1134 2591 1072 2394 
Q 978 2094 978 1738 
L 978 0 
L 416 0 
z
" transform="scale(0.015625)"/>
       <path id="ArialMT-65" d="M 2694 1069 
L 3275 997 
Q 3138 488 2766 206 
Q 2394 -75 1816 -75 
Q 1088 -75 661 373 
Q 234 822 234 1631 
Q 234 2469 665 2931 
Q 1097 3394 1784 3394 
Q 2450 3394 2872 2941 
Q 3294 2488 3294 1666 
Q 3294 1616 3291 1516 
L 816 1516 
Q 847 969 1125 678 
Q 1403 388 1819 388 
Q 2128 388 2347 550 
Q 2566 713 2694 1069 
z
M 847 1978 
L 2700 1978 
Q 2663 2397 2488 2606 
Q 2219 2931 1791 2931 
Q 1403 2931 1139 2672 
Q 875 2413 847 1978 
z
" transform="scale(0.015625)"/>
       <path id="ArialMT-71" d="M 2538 -1272 
L 2538 353 
Q 2406 169 2170 47 
Q 1934 -75 1669 -75 
Q 1078 -75 651 397 
Q 225 869 225 1691 
Q 225 2191 398 2587 
Q 572 2984 901 3189 
Q 1231 3394 1625 3394 
Q 2241 3394 2594 2875 
L 2594 3319 
L 3100 3319 
L 3100 -1272 
L 2538 -1272 
z
M 803 1669 
Q 803 1028 1072 708 
Q 1341 388 1716 388 
Q 2075 388 2334 692 
Q 2594 997 2594 1619 
Q 2594 2281 2320 2615 
Q 2047 2950 1678 2950 
Q 1313 2950 1058 2639 
Q 803 2328 803 1669 
z
" transform="scale(0.015625)"/>
       <path id="ArialMT-6e" d="M 422 0 
L 422 3319 
L 928 3319 
L 928 2847 
Q 1294 3394 1984 3394 
Q 2284 3394 2536 3286 
Q 2788 3178 2913 3003 
Q 3038 2828 3088 2588 
Q 3119 2431 3119 2041 
L 3119 0 
L 2556 0 
L 2556 2019 
Q 2556 2363 2490 2533 
Q 2425 2703 2258 2804 
Q 2091 2906 1866 2906 
Q 1506 2906 1245 2678 
Q 984 2450 984 1813 
L 984 0 
L 422 0 
z
" transform="scale(0.015625)"/>
       <path id="ArialMT-63" d="M 2588 1216 
L 3141 1144 
Q 3050 572 2676 248 
Q 2303 -75 1759 -75 
Q 1078 -75 664 370 
Q 250 816 250 1647 
Q 250 2184 428 2587 
Q 606 2991 970 3192 
Q 1334 3394 1763 3394 
Q 2303 3394 2647 3120 
Q 2991 2847 3088 2344 
L 2541 2259 
Q 2463 2594 2264 2762 
Q 2066 2931 1784 2931 
Q 1359 2931 1093 2626 
Q 828 2322 828 1663 
Q 828 994 1084 691 
Q 1341 388 1753 388 
Q 2084 388 2306 591 
Q 2528 794 2588 1216 
z
" transform="scale(0.015625)"/>
       <path id="ArialMT-79" d="M 397 -1278 
L 334 -750 
Q 519 -800 656 -800 
Q 844 -800 956 -737 
Q 1069 -675 1141 -563 
Q 1194 -478 1313 -144 
Q 1328 -97 1363 -6 
L 103 3319 
L 709 3319 
L 1400 1397 
Q 1534 1031 1641 628 
Q 1738 1016 1872 1384 
L 2581 3319 
L 3144 3319 
L 1881 -56 
Q 1678 -603 1566 -809 
Q 1416 -1088 1222 -1217 
Q 1028 -1347 759 -1347 
Q 597 -1347 397 -1278 
z
" transform="scale(0.015625)"/>
      </defs>
      <use xlink:href="#ArialMT-66"/>
      <use xlink:href="#ArialMT-72" x="27.783203"/>
      <use xlink:href="#ArialMT-65" x="61.083984"/>
      <use xlink:href="#ArialMT-71" x="116.699219"/>
      <use xlink:href="#ArialMT-75" x="172.314453"/>
      <use xlink:href="#ArialMT-65" x="227.929688"/>
      <use xlink:href="#ArialMT-6e" x="283.544922"/>
      <use xlink:href="#ArialMT-63" x="339.160156"/>
      <use xlink:href="#ArialMT-79" x="389.160156"/>
      <use xlink:href="#ArialMT-20" x="439.160156"/>
      <use xlink:href="#ArialMT-28" x="466.943359"/>
      <use xlink:href="#ArialMT-61" x="500.244141"/>
      <use xlink:href="#ArialMT-2e" x="555.859375"/>
      <use xlink:href="#ArialMT-75" x="583.642578"/>
      <use xlink:href="#ArialMT-2e" x="639.257812"/>
      <use xlink:href="#ArialMT-29" x="667.041016"/>
     </g>
    </g>
   </g>
   <g id="patch_33">
    <path d="M 85.974688 187.016719 
L 85.974688 23.936719 
" style="fill: none; stroke: #000000; stroke-width: 0.8; stroke-linejoin: miter; stroke-linecap: square"/>
   </g>
   <g id="patch_34">
    <path d="M 285.260402 187.016719 
L 285.260402 23.936719 
" style="fill: none; stroke: #000000; stroke-width: 0.8; stroke-linejoin: miter; stroke-linecap: square"/>
   </g>
   <g id="patch_35">
    <path d="M 85.974688 187.016719 
L 285.260402 187.016719 
" style="fill: none; stroke: #000000; stroke-width: 0.8; stroke-linejoin: miter; stroke-linecap: square"/>
   </g>
   <g id="patch_36">
    <path d="M 85.974688 23.936719 
L 285.260402 23.936719 
" style="fill: none; stroke: #000000; stroke-width: 0.8; stroke-linejoin: miter; stroke-linecap: square"/>
   </g>
   <g id="text_8">
    <!-- $\mathbb{E}[Y|~do(X_{0}=1)]-\mathbb{E}[Y|~do(X_{0}=0)]$ -->
    <g transform="translate(81.592545 17.936719) scale(0.15 -0.15)">
     <defs>
      <path id="STIXNonUnicode-Italic-e156" d="M 4250 4179 
L 4192 3942 
L 2150 3942 
L 1709 2266 
L 3514 2266 
L 3443 2029 
L 1645 2029 
L 1165 237 
L 3443 237 
L 3392 0 
L 109 0 
L 1229 4179 
L 4250 4179 
z
M 1914 3942 
L 1414 3942 
L 416 237 
L 928 237 
L 1914 3942 
z
" transform="scale(0.015625)"/>
      <path id="STIXGeneral-Regular-5b" d="M 1914 -998 
L 563 -998 
L 563 4237 
L 1914 4237 
L 1914 4077 
L 1382 4077 
Q 1216 4077 1133 4006 
Q 1050 3936 1050 3770 
L 1050 -493 
Q 1050 -838 1382 -838 
L 1914 -838 
L 1914 -998 
z
" transform="scale(0.015625)"/>
      <path id="STIXGeneral-Italic-59" d="M 4051 4179 
L 4051 4077 
Q 3917 4032 3846 3965 
Q 3776 3898 3603 3686 
L 2202 1958 
L 1971 1171 
Q 1779 512 1779 358 
Q 1779 237 1852 185 
Q 1926 134 2118 122 
L 2349 102 
L 2349 0 
L 499 0 
L 499 102 
Q 826 122 963 221 
Q 1101 320 1184 621 
L 1562 1933 
L 1075 3642 
Q 1005 3898 925 3968 
Q 845 4038 582 4077 
L 582 4179 
L 2112 4179 
L 2112 4077 
Q 1830 4051 1740 4003 
Q 1651 3955 1651 3846 
Q 1651 3738 1882 2925 
L 2080 2221 
L 2330 2515 
Q 3283 3642 3283 3878 
Q 3283 4032 3027 4058 
L 2842 4077 
L 2842 4179 
L 4051 4179 
z
" transform="scale(0.015625)"/>
      <path id="STIXGeneral-Regular-7c" d="M 851 -90 
L 429 -90 
L 429 4326 
L 851 4326 
L 851 -90 
z
" transform="scale(0.015625)"/>
      <path id="STIXGeneral-Italic-64" d="M 3334 4371 
L 3373 4333 
L 3123 3360 
L 2739 1958 
Q 2323 429 2323 384 
Q 2323 256 2438 256 
Q 2522 256 2614 336 
Q 2707 416 2963 710 
L 3040 646 
Q 2547 -83 2099 -83 
Q 1978 -83 1907 -6 
Q 1837 70 1837 205 
Q 1837 397 1920 774 
Q 1645 307 1379 118 
Q 1114 -70 781 -70 
Q 461 -70 278 125 
Q 96 320 96 678 
Q 96 1440 713 2131 
Q 1331 2822 1965 2822 
Q 2163 2822 2256 2732 
Q 2349 2643 2381 2451 
L 2387 2451 
L 2675 3494 
Q 2765 3808 2765 3949 
Q 2765 4051 2694 4076 
Q 2624 4102 2355 4115 
L 2355 4224 
Q 2848 4269 3334 4371 
z
M 2278 2310 
Q 2278 2477 2185 2576 
Q 2093 2675 1978 2675 
Q 1677 2675 1395 2381 
Q 1075 2042 864 1571 
Q 653 1101 653 704 
Q 653 486 752 361 
Q 851 237 1024 237 
Q 1312 237 1606 550 
Q 1901 864 2089 1350 
Q 2278 1837 2278 2310 
z
" transform="scale(0.015625)"/>
      <path id="STIXGeneral-Italic-6f" d="M 2995 1926 
Q 2995 1562 2812 1168 
Q 2630 774 2317 461 
Q 1786 -70 1114 -70 
Q 666 -70 419 163 
Q 173 397 173 819 
Q 173 1350 496 1856 
Q 819 2362 1325 2630 
Q 1683 2822 2093 2822 
Q 2490 2822 2742 2582 
Q 2995 2342 2995 1926 
z
M 2458 2086 
Q 2458 2374 2336 2531 
Q 2214 2688 2003 2688 
Q 1574 2688 1184 2106 
Q 710 1382 710 646 
Q 710 365 844 214 
Q 979 64 1210 64 
Q 1600 64 1984 595 
Q 2202 890 2330 1302 
Q 2458 1715 2458 2086 
z
" transform="scale(0.015625)"/>
      <path id="STIXGeneral-Regular-28" d="M 1946 -1030 
L 1869 -1133 
Q 1126 -710 716 32 
Q 307 774 307 1613 
Q 307 3386 1888 4326 
L 1946 4224 
Q 1293 3667 1075 3126 
Q 858 2586 858 1632 
Q 858 685 1082 96 
Q 1306 -493 1946 -1030 
z
" transform="scale(0.015625)"/>
      <path id="STIXGeneral-Italic-58" d="M 4192 4179 
L 4192 4077 
Q 3981 4006 3805 3875 
Q 3629 3744 3392 3469 
L 2310 2227 
L 2957 595 
Q 3072 307 3187 224 
Q 3302 141 3629 102 
L 3629 0 
L 1894 0 
L 1894 102 
Q 2170 109 2278 163 
Q 2387 218 2387 339 
Q 2387 442 2298 666 
L 1869 1722 
L 902 621 
Q 755 454 755 314 
Q 755 102 1178 102 
L 1178 0 
L -186 0 
L -186 102 
Q 70 147 300 361 
Q 531 576 1222 1382 
L 1754 2003 
L 1094 3635 
Q 998 3872 880 3961 
Q 762 4051 486 4077 
L 486 4179 
L 2170 4179 
L 2170 4077 
Q 1907 4045 1811 3990 
Q 1715 3936 1715 3814 
Q 1715 3706 1818 3456 
L 2195 2515 
L 3123 3584 
Q 3258 3738 3258 3859 
Q 3258 4058 2867 4077 
L 2867 4179 
L 4192 4179 
z
" transform="scale(0.015625)"/>
      <path id="STIXGeneral-Regular-30" d="M 3046 2112 
Q 3046 1683 2963 1302 
Q 2880 922 2717 602 
Q 2554 282 2266 96 
Q 1978 -90 1600 -90 
Q 1210 -90 915 108 
Q 621 307 461 640 
Q 301 973 227 1350 
Q 154 1728 154 2150 
Q 154 2746 301 3222 
Q 448 3699 790 4012 
Q 1133 4326 1626 4326 
Q 2253 4326 2649 3712 
Q 3046 3098 3046 2112 
z
M 2432 2080 
Q 2432 3091 2217 3625 
Q 2003 4160 1587 4160 
Q 1190 4160 979 3622 
Q 768 3085 768 2106 
Q 768 1120 979 598 
Q 1190 77 1600 77 
Q 2003 77 2217 598 
Q 2432 1120 2432 2080 
z
" transform="scale(0.015625)"/>
      <path id="STIXGeneral-Regular-3d" d="M 4077 2048 
L 307 2048 
L 307 2470 
L 4077 2470 
L 4077 2048 
z
M 4077 768 
L 307 768 
L 307 1190 
L 4077 1190 
L 4077 768 
z
" transform="scale(0.015625)"/>
      <path id="STIXGeneral-Regular-31" d="M 2522 0 
L 755 0 
L 755 96 
Q 1107 115 1235 227 
Q 1363 339 1363 608 
L 1363 3482 
Q 1363 3795 1171 3795 
Q 1082 3795 883 3718 
L 710 3654 
L 710 3744 
L 1856 4326 
L 1914 4307 
L 1914 486 
Q 1914 275 2042 185 
Q 2170 96 2522 96 
L 2522 0 
z
" transform="scale(0.015625)"/>
      <path id="STIXGeneral-Regular-29" d="M 186 4224 
L 262 4326 
Q 992 3891 1408 3148 
Q 1824 2406 1824 1581 
Q 1824 -166 243 -1133 
L 186 -1030 
Q 845 -486 1059 54 
Q 1274 595 1274 1562 
Q 1274 2534 1059 3120 
Q 845 3706 186 4224 
z
" transform="scale(0.015625)"/>
      <path id="STIXGeneral-Regular-5d" d="M 1568 -998 
L 218 -998 
L 218 -838 
L 781 -838 
Q 947 -838 1014 -768 
Q 1082 -698 1082 -544 
L 1082 3731 
Q 1082 4077 755 4077 
L 218 4077 
L 218 4237 
L 1568 4237 
L 1568 -998 
z
" transform="scale(0.015625)"/>
      <path id="STIXGeneral-Regular-2212" d="M 3974 1408 
L 410 1408 
L 410 1830 
L 3974 1830 
L 3974 1408 
z
" transform="scale(0.015625)"/>
     </defs>
     <use xlink:href="#STIXNonUnicode-Italic-e156" transform="translate(0 0.703125)"/>
     <use xlink:href="#STIXGeneral-Regular-5b" transform="translate(63.899994 0.703125)"/>
     <use xlink:href="#STIXGeneral-Italic-59" transform="translate(97.199982 0.703125)"/>
     <use xlink:href="#STIXGeneral-Regular-7c" transform="translate(152.799973 0.703125)"/>
     <use xlink:href="#STIXGeneral-Italic-64" transform="translate(196.866377 0.703125)"/>
     <use xlink:href="#STIXGeneral-Italic-6f" transform="translate(246.866362 0.703125)"/>
     <use xlink:href="#STIXGeneral-Regular-28" transform="translate(296.866347 0.703125)"/>
     <use xlink:href="#STIXGeneral-Italic-58" transform="translate(330.166334 0.703125)"/>
     <use xlink:href="#STIXGeneral-Regular-30" transform="translate(391.266325 -12.525) scale(0.7)"/>
     <use xlink:href="#STIXGeneral-Regular-3d" transform="translate(445.115686 0.703125)"/>
     <use xlink:href="#STIXGeneral-Regular-31" transform="translate(528.055667 0.703125)"/>
     <use xlink:href="#STIXGeneral-Regular-29" transform="translate(578.055652 0.703125)"/>
     <use xlink:href="#STIXGeneral-Regular-5d" transform="translate(611.35564 0.703125)"/>
     <use xlink:href="#STIXGeneral-Regular-2212" transform="translate(659.095624 0.703125)"/>
     <use xlink:href="#STIXNonUnicode-Italic-e156" transform="translate(742.035605 0.703125)"/>
     <use xlink:href="#STIXGeneral-Regular-5b" transform="translate(805.935599 0.703125)"/>
     <use xlink:href="#STIXGeneral-Italic-59" transform="translate(839.235586 0.703125)"/>
     <use xlink:href="#STIXGeneral-Regular-7c" transform="translate(894.835577 0.703125)"/>
     <use xlink:href="#STIXGeneral-Italic-64" transform="translate(938.901982 0.703125)"/>
     <use xlink:href="#STIXGeneral-Italic-6f" transform="translate(988.901967 0.703125)"/>
     <use xlink:href="#STIXGeneral-Regular-28" transform="translate(1038.901951 0.703125)"/>
     <use xlink:href="#STIXGeneral-Italic-58" transform="translate(1072.201939 0.703125)"/>
     <use xlink:href="#STIXGeneral-Regular-30" transform="translate(1133.30193 -12.525) scale(0.7)"/>
     <use xlink:href="#STIXGeneral-Regular-3d" transform="translate(1187.151291 0.703125)"/>
     <use xlink:href="#STIXGeneral-Regular-30" transform="translate(1270.091272 0.703125)"/>
     <use xlink:href="#STIXGeneral-Regular-29" transform="translate(1320.091257 0.703125)"/>
     <use xlink:href="#STIXGeneral-Regular-5d" transform="translate(1353.391244 0.703125)"/>
    </g>
   </g>
  </g>
  <g id="axes_2">
   <g id="patch_37">
    <path d="M 404.83183 187.016719 
L 604.117545 187.016719 
L 604.117545 23.936719 
L 404.83183 23.936719 
z
" style="fill: #ffffff"/>
   </g>
   <g id="patch_38">
    <path d="M 404.83183 187.016719 
L 411.474688 187.016719 
L 411.474688 187.016719 
L 404.83183 187.016719 
z
" clip-path="url(#ped8594e012)" style="fill: #1f77b4; stroke: #000000; stroke-width: 1.2; stroke-linejoin: miter"/>
   </g>
   <g id="patch_39">
    <path d="M 411.474688 187.016719 
L 418.117545 187.016719 
L 418.117545 187.016719 
L 411.474688 187.016719 
z
" clip-path="url(#ped8594e012)" style="fill: #1f77b4; stroke: #000000; stroke-width: 1.2; stroke-linejoin: miter"/>
   </g>
   <g id="patch_40">
    <path d="M 418.117545 187.016719 
L 424.760402 187.016719 
L 424.760402 187.016719 
L 418.117545 187.016719 
z
" clip-path="url(#ped8594e012)" style="fill: #1f77b4; stroke: #000000; stroke-width: 1.2; stroke-linejoin: miter"/>
   </g>
   <g id="patch_41">
    <path d="M 424.760402 187.016719 
L 431.403259 187.016719 
L 431.403259 187.016719 
L 424.760402 187.016719 
z
" clip-path="url(#ped8594e012)" style="fill: #1f77b4; stroke: #000000; stroke-width: 1.2; stroke-linejoin: miter"/>
   </g>
   <g id="patch_42">
    <path d="M 431.403259 187.016719 
L 438.046116 187.016719 
L 438.046116 187.016719 
L 431.403259 187.016719 
z
" clip-path="url(#ped8594e012)" style="fill: #1f77b4; stroke: #000000; stroke-width: 1.2; stroke-linejoin: miter"/>
   </g>
   <g id="patch_43">
    <path d="M 438.046116 187.016719 
L 444.688973 187.016719 
L 444.688973 187.016719 
L 438.046116 187.016719 
z
" clip-path="url(#ped8594e012)" style="fill: #1f77b4; stroke: #000000; stroke-width: 1.2; stroke-linejoin: miter"/>
   </g>
   <g id="patch_44">
    <path d="M 444.688973 187.016719 
L 451.33183 187.016719 
L 451.33183 187.016719 
L 444.688973 187.016719 
z
" clip-path="url(#ped8594e012)" style="fill: #1f77b4; stroke: #000000; stroke-width: 1.2; stroke-linejoin: miter"/>
   </g>
   <g id="patch_45">
    <path d="M 451.33183 187.016719 
L 457.974688 187.016719 
L 457.974688 187.016719 
L 451.33183 187.016719 
z
" clip-path="url(#ped8594e012)" style="fill: #1f77b4; stroke: #000000; stroke-width: 1.2; stroke-linejoin: miter"/>
   </g>
   <g id="patch_46">
    <path d="M 457.974688 187.016719 
L 464.617545 187.016719 
L 464.617545 187.016719 
L 457.974688 187.016719 
z
" clip-path="url(#ped8594e012)" style="fill: #1f77b4; stroke: #000000; stroke-width: 1.2; stroke-linejoin: miter"/>
   </g>
   <g id="patch_47">
    <path d="M 464.617545 187.016719 
L 471.260402 187.016719 
L 471.260402 187.016719 
L 464.617545 187.016719 
z
" clip-path="url(#ped8594e012)" style="fill: #1f77b4; stroke: #000000; stroke-width: 1.2; stroke-linejoin: miter"/>
   </g>
   <g id="patch_48">
    <path d="M 471.260402 187.016719 
L 477.903259 187.016719 
L 477.903259 187.016719 
L 471.260402 187.016719 
z
" clip-path="url(#ped8594e012)" style="fill: #1f77b4; stroke: #000000; stroke-width: 1.2; stroke-linejoin: miter"/>
   </g>
   <g id="patch_49">
    <path d="M 477.903259 187.016719 
L 484.546116 187.016719 
L 484.546116 187.016719 
L 477.903259 187.016719 
z
" clip-path="url(#ped8594e012)" style="fill: #1f77b4; stroke: #000000; stroke-width: 1.2; stroke-linejoin: miter"/>
   </g>
   <g id="patch_50">
    <path d="M 484.546116 187.016719 
L 491.188973 187.016719 
L 491.188973 187.016719 
L 484.546116 187.016719 
z
" clip-path="url(#ped8594e012)" style="fill: #1f77b4; stroke: #000000; stroke-width: 1.2; stroke-linejoin: miter"/>
   </g>
   <g id="patch_51">
    <path d="M 491.188973 187.016719 
L 497.83183 187.016719 
L 497.83183 187.016719 
L 491.188973 187.016719 
z
" clip-path="url(#ped8594e012)" style="fill: #1f77b4; stroke: #000000; stroke-width: 1.2; stroke-linejoin: miter"/>
   </g>
   <g id="patch_52">
    <path d="M 497.83183 187.016719 
L 504.474688 187.016719 
L 504.474688 187.016719 
L 497.83183 187.016719 
z
" clip-path="url(#ped8594e012)" style="fill: #1f77b4; stroke: #000000; stroke-width: 1.2; stroke-linejoin: miter"/>
   </g>
   <g id="patch_53">
    <path d="M 504.474688 187.016719 
L 511.117545 187.016719 
L 511.117545 187.016719 
L 504.474688 187.016719 
z
" clip-path="url(#ped8594e012)" style="fill: #1f77b4; stroke: #000000; stroke-width: 1.2; stroke-linejoin: miter"/>
   </g>
   <g id="patch_54">
    <path d="M 511.117545 187.016719 
L 517.760402 187.016719 
L 517.760402 187.016719 
L 511.117545 187.016719 
z
" clip-path="url(#ped8594e012)" style="fill: #1f77b4; stroke: #000000; stroke-width: 1.2; stroke-linejoin: miter"/>
   </g>
   <g id="patch_55">
    <path d="M 517.760402 187.016719 
L 524.403259 187.016719 
L 524.403259 187.016719 
L 517.760402 187.016719 
z
" clip-path="url(#ped8594e012)" style="fill: #1f77b4; stroke: #000000; stroke-width: 1.2; stroke-linejoin: miter"/>
   </g>
   <g id="patch_56">
    <path d="M 524.403259 187.016719 
L 531.046116 187.016719 
L 531.046116 187.016719 
L 524.403259 187.016719 
z
" clip-path="url(#ped8594e012)" style="fill: #1f77b4; stroke: #000000; stroke-width: 1.2; stroke-linejoin: miter"/>
   </g>
   <g id="patch_57">
    <path d="M 531.046116 187.016719 
L 537.688973 187.016719 
L 537.688973 187.016719 
L 531.046116 187.016719 
z
" clip-path="url(#ped8594e012)" style="fill: #1f77b4; stroke: #000000; stroke-width: 1.2; stroke-linejoin: miter"/>
   </g>
   <g id="patch_58">
    <path d="M 537.688973 187.016719 
L 544.33183 187.016719 
L 544.33183 187.016719 
L 537.688973 187.016719 
z
" clip-path="url(#ped8594e012)" style="fill: #1f77b4; stroke: #000000; stroke-width: 1.2; stroke-linejoin: miter"/>
   </g>
   <g id="patch_59">
    <path d="M 544.33183 187.016719 
L 550.974688 187.016719 
L 550.974688 187.016719 
L 544.33183 187.016719 
z
" clip-path="url(#ped8594e012)" style="fill: #1f77b4; stroke: #000000; stroke-width: 1.2; stroke-linejoin: miter"/>
   </g>
   <g id="patch_60">
    <path d="M 550.974688 187.016719 
L 557.617545 187.016719 
L 557.617545 187.016719 
L 550.974688 187.016719 
z
" clip-path="url(#ped8594e012)" style="fill: #1f77b4; stroke: #000000; stroke-width: 1.2; stroke-linejoin: miter"/>
   </g>
   <g id="patch_61">
    <path d="M 557.617545 187.016719 
L 564.260402 187.016719 
L 564.260402 187.016719 
L 557.617545 187.016719 
z
" clip-path="url(#ped8594e012)" style="fill: #1f77b4; stroke: #000000; stroke-width: 1.2; stroke-linejoin: miter"/>
   </g>
   <g id="patch_62">
    <path d="M 564.260402 187.016719 
L 570.903259 187.016719 
L 570.903259 31.702433 
L 564.260402 31.702433 
z
" clip-path="url(#ped8594e012)" style="fill: #1f77b4; stroke: #000000; stroke-width: 1.2; stroke-linejoin: miter"/>
   </g>
   <g id="patch_63">
    <path d="M 570.903259 187.016719 
L 577.546116 187.016719 
L 577.546116 187.016719 
L 570.903259 187.016719 
z
" clip-path="url(#ped8594e012)" style="fill: #1f77b4; stroke: #000000; stroke-width: 1.2; stroke-linejoin: miter"/>
   </g>
   <g id="patch_64">
    <path d="M 577.546116 187.016719 
L 584.188973 187.016719 
L 584.188973 187.016719 
L 577.546116 187.016719 
z
" clip-path="url(#ped8594e012)" style="fill: #1f77b4; stroke: #000000; stroke-width: 1.2; stroke-linejoin: miter"/>
   </g>
   <g id="patch_65">
    <path d="M 584.188973 187.016719 
L 590.83183 187.016719 
L 590.83183 187.016719 
L 584.188973 187.016719 
z
" clip-path="url(#ped8594e012)" style="fill: #1f77b4; stroke: #000000; stroke-width: 1.2; stroke-linejoin: miter"/>
   </g>
   <g id="patch_66">
    <path d="M 590.83183 187.016719 
L 597.474688 187.016719 
L 597.474688 187.016719 
L 590.83183 187.016719 
z
" clip-path="url(#ped8594e012)" style="fill: #1f77b4; stroke: #000000; stroke-width: 1.2; stroke-linejoin: miter"/>
   </g>
   <g id="patch_67">
    <path d="M 597.474688 187.016719 
L 604.117545 187.016719 
L 604.117545 187.016719 
L 597.474688 187.016719 
z
" clip-path="url(#ped8594e012)" style="fill: #1f77b4; stroke: #000000; stroke-width: 1.2; stroke-linejoin: miter"/>
   </g>
   <g id="matplotlib.axis_3">
    <g id="xtick_4">
     <g id="line2d_6">
      <g>
       <use xlink:href="#mf446427e64" x="422.948713" y="187.016719" style="stroke: #000000; stroke-width: 0.8"/>
      </g>
     </g>
     <g id="text_9">
      <!-- 0.0 -->
      <g transform="translate(404.878713 212.627031) scale(0.26 -0.26)">
       <use xlink:href="#ArialMT-30"/>
       <use xlink:href="#ArialMT-2e" x="55.615234"/>
       <use xlink:href="#ArialMT-30" x="83.398438"/>
      </g>
     </g>
    </g>
    <g id="xtick_5">
     <g id="line2d_7">
      <g>
       <use xlink:href="#mf446427e64" x="513.533129" y="187.016719" style="stroke: #000000; stroke-width: 0.8"/>
      </g>
     </g>
     <g id="text_10">
      <!-- 0.5 -->
      <g transform="translate(495.463129 212.627031) scale(0.26 -0.26)">
       <use xlink:href="#ArialMT-30"/>
       <use xlink:href="#ArialMT-2e" x="55.615234"/>
       <use xlink:href="#ArialMT-35" x="83.398438"/>
      </g>
     </g>
    </g>
    <g id="xtick_6">
     <g id="line2d_8">
      <g>
       <use xlink:href="#mf446427e64" x="604.117545" y="187.016719" style="stroke: #000000; stroke-width: 0.8"/>
      </g>
     </g>
     <g id="text_11">
      <!-- 1.0 -->
      <g transform="translate(586.047545 212.627031) scale(0.26 -0.26)">
       <use xlink:href="#ArialMT-31"/>
       <use xlink:href="#ArialMT-2e" x="55.615234"/>
       <use xlink:href="#ArialMT-30" x="83.398438"/>
      </g>
     </g>
    </g>
    <g id="text_12">
     <!-- ATE (a.u.) -->
     <g transform="translate(446.200156 240.721719) scale(0.26 -0.26)">
      <use xlink:href="#ArialMT-41"/>
      <use xlink:href="#ArialMT-54" x="59.324219"/>
      <use xlink:href="#ArialMT-45" x="120.408203"/>
      <use xlink:href="#ArialMT-20" x="187.107422"/>
      <use xlink:href="#ArialMT-28" x="214.890625"/>
      <use xlink:href="#ArialMT-61" x="248.191406"/>
      <use xlink:href="#ArialMT-2e" x="303.806641"/>
      <use xlink:href="#ArialMT-75" x="331.589844"/>
      <use xlink:href="#ArialMT-2e" x="387.205078"/>
      <use xlink:href="#ArialMT-29" x="414.988281"/>
     </g>
    </g>
   </g>
   <g id="matplotlib.axis_4">
    <g id="ytick_3">
     <g id="line2d_9">
      <g>
       <use xlink:href="#m0e3c4e01a4" x="404.83183" y="187.016719" style="stroke: #000000; stroke-width: 0.8"/>
      </g>
     </g>
     <g id="text_13">
      <!-- 0 -->
      <g transform="translate(383.373393 196.321875) scale(0.26 -0.26)">
       <use xlink:href="#ArialMT-30"/>
      </g>
     </g>
    </g>
    <g id="ytick_4">
     <g id="line2d_10">
      <g>
       <use xlink:href="#m0e3c4e01a4" x="404.83183" y="109.359576" style="stroke: #000000; stroke-width: 0.8"/>
      </g>
     </g>
     <g id="text_14">
      <!-- 500 -->
      <g transform="translate(354.456518 118.664732) scale(0.26 -0.26)">
       <use xlink:href="#ArialMT-35"/>
       <use xlink:href="#ArialMT-30" x="55.615234"/>
       <use xlink:href="#ArialMT-30" x="111.230469"/>
      </g>
     </g>
    </g>
    <g id="ytick_5">
     <g id="line2d_11">
      <g>
       <use xlink:href="#m0e3c4e01a4" x="404.83183" y="31.702433" style="stroke: #000000; stroke-width: 0.8"/>
      </g>
     </g>
     <g id="text_15">
      <!-- 1000 -->
      <g transform="translate(339.99808 41.007589) scale(0.26 -0.26)">
       <use xlink:href="#ArialMT-31"/>
       <use xlink:href="#ArialMT-30" x="55.615234"/>
       <use xlink:href="#ArialMT-30" x="111.230469"/>
       <use xlink:href="#ArialMT-30" x="166.845703"/>
      </g>
     </g>
    </g>
   </g>
   <g id="patch_68">
    <path d="M 404.83183 187.016719 
L 404.83183 23.936719 
" style="fill: none; stroke: #000000; stroke-width: 0.8; stroke-linejoin: miter; stroke-linecap: square"/>
   </g>
   <g id="patch_69">
    <path d="M 604.117545 187.016719 
L 604.117545 23.936719 
" style="fill: none; stroke: #000000; stroke-width: 0.8; stroke-linejoin: miter; stroke-linecap: square"/>
   </g>
   <g id="patch_70">
    <path d="M 404.83183 187.016719 
L 604.117545 187.016719 
" style="fill: none; stroke: #000000; stroke-width: 0.8; stroke-linejoin: miter; stroke-linecap: square"/>
   </g>
   <g id="patch_71">
    <path d="M 404.83183 23.936719 
L 604.117545 23.936719 
" style="fill: none; stroke: #000000; stroke-width: 0.8; stroke-linejoin: miter; stroke-linecap: square"/>
   </g>
   <g id="text_16">
    <!-- $\mathbb{E}[Y|~do(X_{1}=1)]-\mathbb{E}[Y|~do(X_{1}=0)]$ -->
    <g transform="translate(400.449688 17.936719) scale(0.15 -0.15)">
     <use xlink:href="#STIXNonUnicode-Italic-e156" transform="translate(0 0.703125)"/>
     <use xlink:href="#STIXGeneral-Regular-5b" transform="translate(63.899994 0.703125)"/>
     <use xlink:href="#STIXGeneral-Italic-59" transform="translate(97.199982 0.703125)"/>
     <use xlink:href="#STIXGeneral-Regular-7c" transform="translate(152.799973 0.703125)"/>
     <use xlink:href="#STIXGeneral-Italic-64" transform="translate(196.866377 0.703125)"/>
     <use xlink:href="#STIXGeneral-Italic-6f" transform="translate(246.866362 0.703125)"/>
     <use xlink:href="#STIXGeneral-Regular-28" transform="translate(296.866347 0.703125)"/>
     <use xlink:href="#STIXGeneral-Italic-58" transform="translate(330.166334 0.703125)"/>
     <use xlink:href="#STIXGeneral-Regular-31" transform="translate(391.266325 -12.525) scale(0.7)"/>
     <use xlink:href="#STIXGeneral-Regular-3d" transform="translate(445.115686 0.703125)"/>
     <use xlink:href="#STIXGeneral-Regular-31" transform="translate(528.055667 0.703125)"/>
     <use xlink:href="#STIXGeneral-Regular-29" transform="translate(578.055652 0.703125)"/>
     <use xlink:href="#STIXGeneral-Regular-5d" transform="translate(611.35564 0.703125)"/>
     <use xlink:href="#STIXGeneral-Regular-2212" transform="translate(659.095624 0.703125)"/>
     <use xlink:href="#STIXNonUnicode-Italic-e156" transform="translate(742.035605 0.703125)"/>
     <use xlink:href="#STIXGeneral-Regular-5b" transform="translate(805.935599 0.703125)"/>
     <use xlink:href="#STIXGeneral-Italic-59" transform="translate(839.235586 0.703125)"/>
     <use xlink:href="#STIXGeneral-Regular-7c" transform="translate(894.835577 0.703125)"/>
     <use xlink:href="#STIXGeneral-Italic-64" transform="translate(938.901982 0.703125)"/>
     <use xlink:href="#STIXGeneral-Italic-6f" transform="translate(988.901967 0.703125)"/>
     <use xlink:href="#STIXGeneral-Regular-28" transform="translate(1038.901951 0.703125)"/>
     <use xlink:href="#STIXGeneral-Italic-58" transform="translate(1072.201939 0.703125)"/>
     <use xlink:href="#STIXGeneral-Regular-31" transform="translate(1133.30193 -12.525) scale(0.7)"/>
     <use xlink:href="#STIXGeneral-Regular-3d" transform="translate(1187.151291 0.703125)"/>
     <use xlink:href="#STIXGeneral-Regular-30" transform="translate(1270.091272 0.703125)"/>
     <use xlink:href="#STIXGeneral-Regular-29" transform="translate(1320.091257 0.703125)"/>
     <use xlink:href="#STIXGeneral-Regular-5d" transform="translate(1353.391244 0.703125)"/>
    </g>
   </g>
  </g>
  <g id="axes_3">
   <g id="patch_72">
    <path d="M 723.688973 187.016719 
L 922.974688 187.016719 
L 922.974688 23.936719 
L 723.688973 23.936719 
z
" style="fill: #ffffff"/>
   </g>
   <g id="patch_73">
    <path d="M 723.688973 187.016719 
L 730.33183 187.016719 
L 730.33183 187.016719 
L 723.688973 187.016719 
z
" clip-path="url(#pc5912f3dd4)" style="fill: #1f77b4; stroke: #000000; stroke-width: 1.2; stroke-linejoin: miter"/>
   </g>
   <g id="patch_74">
    <path d="M 730.33183 187.016719 
L 736.974688 187.016719 
L 736.974688 187.016719 
L 730.33183 187.016719 
z
" clip-path="url(#pc5912f3dd4)" style="fill: #1f77b4; stroke: #000000; stroke-width: 1.2; stroke-linejoin: miter"/>
   </g>
   <g id="patch_75">
    <path d="M 736.974688 187.016719 
L 743.617545 187.016719 
L 743.617545 187.016719 
L 736.974688 187.016719 
z
" clip-path="url(#pc5912f3dd4)" style="fill: #1f77b4; stroke: #000000; stroke-width: 1.2; stroke-linejoin: miter"/>
   </g>
   <g id="patch_76">
    <path d="M 743.617545 187.016719 
L 750.260402 187.016719 
L 750.260402 187.016719 
L 743.617545 187.016719 
z
" clip-path="url(#pc5912f3dd4)" style="fill: #1f77b4; stroke: #000000; stroke-width: 1.2; stroke-linejoin: miter"/>
   </g>
   <g id="patch_77">
    <path d="M 750.260402 187.016719 
L 756.903259 187.016719 
L 756.903259 187.016719 
L 750.260402 187.016719 
z
" clip-path="url(#pc5912f3dd4)" style="fill: #1f77b4; stroke: #000000; stroke-width: 1.2; stroke-linejoin: miter"/>
   </g>
   <g id="patch_78">
    <path d="M 756.903259 187.016719 
L 763.546116 187.016719 
L 763.546116 187.016719 
L 756.903259 187.016719 
z
" clip-path="url(#pc5912f3dd4)" style="fill: #1f77b4; stroke: #000000; stroke-width: 1.2; stroke-linejoin: miter"/>
   </g>
   <g id="patch_79">
    <path d="M 763.546116 187.016719 
L 770.188973 187.016719 
L 770.188973 187.016719 
L 763.546116 187.016719 
z
" clip-path="url(#pc5912f3dd4)" style="fill: #1f77b4; stroke: #000000; stroke-width: 1.2; stroke-linejoin: miter"/>
   </g>
   <g id="patch_80">
    <path d="M 770.188973 187.016719 
L 776.83183 187.016719 
L 776.83183 187.016719 
L 770.188973 187.016719 
z
" clip-path="url(#pc5912f3dd4)" style="fill: #1f77b4; stroke: #000000; stroke-width: 1.2; stroke-linejoin: miter"/>
   </g>
   <g id="patch_81">
    <path d="M 776.83183 187.016719 
L 783.474688 187.016719 
L 783.474688 187.016719 
L 776.83183 187.016719 
z
" clip-path="url(#pc5912f3dd4)" style="fill: #1f77b4; stroke: #000000; stroke-width: 1.2; stroke-linejoin: miter"/>
   </g>
   <g id="patch_82">
    <path d="M 783.474688 187.016719 
L 790.117545 187.016719 
L 790.117545 187.016719 
L 783.474688 187.016719 
z
" clip-path="url(#pc5912f3dd4)" style="fill: #1f77b4; stroke: #000000; stroke-width: 1.2; stroke-linejoin: miter"/>
   </g>
   <g id="patch_83">
    <path d="M 790.117545 187.016719 
L 796.760402 187.016719 
L 796.760402 187.016719 
L 790.117545 187.016719 
z
" clip-path="url(#pc5912f3dd4)" style="fill: #1f77b4; stroke: #000000; stroke-width: 1.2; stroke-linejoin: miter"/>
   </g>
   <g id="patch_84">
    <path d="M 796.760402 187.016719 
L 803.403259 187.016719 
L 803.403259 187.016719 
L 796.760402 187.016719 
z
" clip-path="url(#pc5912f3dd4)" style="fill: #1f77b4; stroke: #000000; stroke-width: 1.2; stroke-linejoin: miter"/>
   </g>
   <g id="patch_85">
    <path d="M 803.403259 187.016719 
L 810.046116 187.016719 
L 810.046116 187.016719 
L 803.403259 187.016719 
z
" clip-path="url(#pc5912f3dd4)" style="fill: #1f77b4; stroke: #000000; stroke-width: 1.2; stroke-linejoin: miter"/>
   </g>
   <g id="patch_86">
    <path d="M 810.046116 187.016719 
L 816.688973 187.016719 
L 816.688973 187.016719 
L 810.046116 187.016719 
z
" clip-path="url(#pc5912f3dd4)" style="fill: #1f77b4; stroke: #000000; stroke-width: 1.2; stroke-linejoin: miter"/>
   </g>
   <g id="patch_87">
    <path d="M 816.688973 187.016719 
L 823.33183 187.016719 
L 823.33183 187.016719 
L 816.688973 187.016719 
z
" clip-path="url(#pc5912f3dd4)" style="fill: #1f77b4; stroke: #000000; stroke-width: 1.2; stroke-linejoin: miter"/>
   </g>
   <g id="patch_88">
    <path d="M 823.33183 187.016719 
L 829.974688 187.016719 
L 829.974688 187.016719 
L 823.33183 187.016719 
z
" clip-path="url(#pc5912f3dd4)" style="fill: #1f77b4; stroke: #000000; stroke-width: 1.2; stroke-linejoin: miter"/>
   </g>
   <g id="patch_89">
    <path d="M 829.974688 187.016719 
L 836.617545 187.016719 
L 836.617545 187.016719 
L 829.974688 187.016719 
z
" clip-path="url(#pc5912f3dd4)" style="fill: #1f77b4; stroke: #000000; stroke-width: 1.2; stroke-linejoin: miter"/>
   </g>
   <g id="patch_90">
    <path d="M 836.617545 187.016719 
L 843.260402 187.016719 
L 843.260402 187.016719 
L 836.617545 187.016719 
z
" clip-path="url(#pc5912f3dd4)" style="fill: #1f77b4; stroke: #000000; stroke-width: 1.2; stroke-linejoin: miter"/>
   </g>
   <g id="patch_91">
    <path d="M 843.260402 187.016719 
L 849.903259 187.016719 
L 849.903259 186.807118 
L 843.260402 186.807118 
z
" clip-path="url(#pc5912f3dd4)" style="fill: #1f77b4; stroke: #000000; stroke-width: 1.2; stroke-linejoin: miter"/>
   </g>
   <g id="patch_92">
    <path d="M 849.903259 187.016719 
L 856.546116 187.016719 
L 856.546116 150.96536 
L 849.903259 150.96536 
z
" clip-path="url(#pc5912f3dd4)" style="fill: #1f77b4; stroke: #000000; stroke-width: 1.2; stroke-linejoin: miter"/>
   </g>
   <g id="patch_93">
    <path d="M 856.546116 187.016719 
L 863.188973 187.016719 
L 863.188973 31.702433 
L 856.546116 31.702433 
z
" clip-path="url(#pc5912f3dd4)" style="fill: #1f77b4; stroke: #000000; stroke-width: 1.2; stroke-linejoin: miter"/>
   </g>
   <g id="patch_94">
    <path d="M 863.188973 187.016719 
L 869.83183 187.016719 
L 869.83183 168.991039 
L 863.188973 168.991039 
z
" clip-path="url(#pc5912f3dd4)" style="fill: #1f77b4; stroke: #000000; stroke-width: 1.2; stroke-linejoin: miter"/>
   </g>
   <g id="patch_95">
    <path d="M 869.83183 187.016719 
L 876.474688 187.016719 
L 876.474688 187.016719 
L 869.83183 187.016719 
z
" clip-path="url(#pc5912f3dd4)" style="fill: #1f77b4; stroke: #000000; stroke-width: 1.2; stroke-linejoin: miter"/>
   </g>
   <g id="patch_96">
    <path d="M 876.474688 187.016719 
L 883.117545 187.016719 
L 883.117545 187.016719 
L 876.474688 187.016719 
z
" clip-path="url(#pc5912f3dd4)" style="fill: #1f77b4; stroke: #000000; stroke-width: 1.2; stroke-linejoin: miter"/>
   </g>
   <g id="patch_97">
    <path d="M 883.117545 187.016719 
L 889.760402 187.016719 
L 889.760402 187.016719 
L 883.117545 187.016719 
z
" clip-path="url(#pc5912f3dd4)" style="fill: #1f77b4; stroke: #000000; stroke-width: 1.2; stroke-linejoin: miter"/>
   </g>
   <g id="patch_98">
    <path d="M 889.760402 187.016719 
L 896.403259 187.016719 
L 896.403259 187.016719 
L 889.760402 187.016719 
z
" clip-path="url(#pc5912f3dd4)" style="fill: #1f77b4; stroke: #000000; stroke-width: 1.2; stroke-linejoin: miter"/>
   </g>
   <g id="patch_99">
    <path d="M 896.403259 187.016719 
L 903.046116 187.016719 
L 903.046116 187.016719 
L 896.403259 187.016719 
z
" clip-path="url(#pc5912f3dd4)" style="fill: #1f77b4; stroke: #000000; stroke-width: 1.2; stroke-linejoin: miter"/>
   </g>
   <g id="patch_100">
    <path d="M 903.046116 187.016719 
L 909.688973 187.016719 
L 909.688973 187.016719 
L 903.046116 187.016719 
z
" clip-path="url(#pc5912f3dd4)" style="fill: #1f77b4; stroke: #000000; stroke-width: 1.2; stroke-linejoin: miter"/>
   </g>
   <g id="patch_101">
    <path d="M 909.688973 187.016719 
L 916.33183 187.016719 
L 916.33183 187.016719 
L 909.688973 187.016719 
z
" clip-path="url(#pc5912f3dd4)" style="fill: #1f77b4; stroke: #000000; stroke-width: 1.2; stroke-linejoin: miter"/>
   </g>
   <g id="patch_102">
    <path d="M 916.33183 187.016719 
L 922.974687 187.016719 
L 922.974687 187.016719 
L 916.33183 187.016719 
z
" clip-path="url(#pc5912f3dd4)" style="fill: #1f77b4; stroke: #000000; stroke-width: 1.2; stroke-linejoin: miter"/>
   </g>
   <g id="matplotlib.axis_5">
    <g id="xtick_7">
     <g id="line2d_12">
      <g>
       <use xlink:href="#mf446427e64" x="741.805856" y="187.016719" style="stroke: #000000; stroke-width: 0.8"/>
      </g>
     </g>
     <g id="text_17">
      <!-- 0.0 -->
      <g transform="translate(723.735856 212.627031) scale(0.26 -0.26)">
       <use xlink:href="#ArialMT-30"/>
       <use xlink:href="#ArialMT-2e" x="55.615234"/>
       <use xlink:href="#ArialMT-30" x="83.398438"/>
      </g>
     </g>
    </g>
    <g id="xtick_8">
     <g id="line2d_13">
      <g>
       <use xlink:href="#mf446427e64" x="832.390272" y="187.016719" style="stroke: #000000; stroke-width: 0.8"/>
      </g>
     </g>
     <g id="text_18">
      <!-- 0.5 -->
      <g transform="translate(814.320272 212.627031) scale(0.26 -0.26)">
       <use xlink:href="#ArialMT-30"/>
       <use xlink:href="#ArialMT-2e" x="55.615234"/>
       <use xlink:href="#ArialMT-35" x="83.398438"/>
      </g>
     </g>
    </g>
    <g id="xtick_9">
     <g id="line2d_14">
      <g>
       <use xlink:href="#mf446427e64" x="922.974688" y="187.016719" style="stroke: #000000; stroke-width: 0.8"/>
      </g>
     </g>
     <g id="text_19">
      <!-- 1.0 -->
      <g transform="translate(904.904688 212.627031) scale(0.26 -0.26)">
       <use xlink:href="#ArialMT-31"/>
       <use xlink:href="#ArialMT-2e" x="55.615234"/>
       <use xlink:href="#ArialMT-30" x="83.398438"/>
      </g>
     </g>
    </g>
    <g id="text_20">
     <!-- ATE (a.u.) -->
     <g transform="translate(765.057299 240.721719) scale(0.26 -0.26)">
      <use xlink:href="#ArialMT-41"/>
      <use xlink:href="#ArialMT-54" x="59.324219"/>
      <use xlink:href="#ArialMT-45" x="120.408203"/>
      <use xlink:href="#ArialMT-20" x="187.107422"/>
      <use xlink:href="#ArialMT-28" x="214.890625"/>
      <use xlink:href="#ArialMT-61" x="248.191406"/>
      <use xlink:href="#ArialMT-2e" x="303.806641"/>
      <use xlink:href="#ArialMT-75" x="331.589844"/>
      <use xlink:href="#ArialMT-2e" x="387.205078"/>
      <use xlink:href="#ArialMT-29" x="414.988281"/>
     </g>
    </g>
   </g>
   <g id="matplotlib.axis_6">
    <g id="ytick_6">
     <g id="line2d_15">
      <g>
       <use xlink:href="#m0e3c4e01a4" x="723.688973" y="187.016719" style="stroke: #000000; stroke-width: 0.8"/>
      </g>
     </g>
     <g id="text_21">
      <!-- 0 -->
      <g transform="translate(702.230536 196.321875) scale(0.26 -0.26)">
       <use xlink:href="#ArialMT-30"/>
      </g>
     </g>
    </g>
    <g id="ytick_7">
     <g id="line2d_16">
      <g>
       <use xlink:href="#m0e3c4e01a4" x="723.688973" y="82.216256" style="stroke: #000000; stroke-width: 0.8"/>
      </g>
     </g>
     <g id="text_22">
      <!-- 500 -->
      <g transform="translate(673.313661 91.521412) scale(0.26 -0.26)">
       <use xlink:href="#ArialMT-35"/>
       <use xlink:href="#ArialMT-30" x="55.615234"/>
       <use xlink:href="#ArialMT-30" x="111.230469"/>
      </g>
     </g>
    </g>
   </g>
   <g id="patch_103">
    <path d="M 723.688973 187.016719 
L 723.688973 23.936719 
" style="fill: none; stroke: #000000; stroke-width: 0.8; stroke-linejoin: miter; stroke-linecap: square"/>
   </g>
   <g id="patch_104">
    <path d="M 922.974688 187.016719 
L 922.974688 23.936719 
" style="fill: none; stroke: #000000; stroke-width: 0.8; stroke-linejoin: miter; stroke-linecap: square"/>
   </g>
   <g id="patch_105">
    <path d="M 723.688973 187.016719 
L 922.974688 187.016719 
" style="fill: none; stroke: #000000; stroke-width: 0.8; stroke-linejoin: miter; stroke-linecap: square"/>
   </g>
   <g id="patch_106">
    <path d="M 723.688973 23.936719 
L 922.974688 23.936719 
" style="fill: none; stroke: #000000; stroke-width: 0.8; stroke-linejoin: miter; stroke-linecap: square"/>
   </g>
   <g id="text_23">
    <!-- $\mathbb{E}[Y|~do(X_{2}=1)]-\mathbb{E}[Y|~do(X_{2}=0)]$ -->
    <g transform="translate(719.30683 17.936719) scale(0.15 -0.15)">
     <defs>
      <path id="STIXGeneral-Regular-32" d="M 3034 877 
L 2688 0 
L 186 0 
L 186 77 
L 1325 1286 
Q 1773 1754 1965 2144 
Q 2157 2534 2157 2950 
Q 2157 3379 1920 3616 
Q 1683 3853 1267 3853 
Q 922 3853 720 3673 
Q 518 3494 326 3021 
L 192 3053 
Q 301 3648 630 3987 
Q 960 4326 1523 4326 
Q 2054 4326 2380 4006 
Q 2707 3686 2707 3200 
Q 2707 2477 1888 1613 
L 832 486 
L 2330 486 
Q 2541 486 2665 569 
Q 2790 653 2944 915 
L 3034 877 
z
" transform="scale(0.015625)"/>
     </defs>
     <use xlink:href="#STIXNonUnicode-Italic-e156" transform="translate(0 0.703125)"/>
     <use xlink:href="#STIXGeneral-Regular-5b" transform="translate(63.899994 0.703125)"/>
     <use xlink:href="#STIXGeneral-Italic-59" transform="translate(97.199982 0.703125)"/>
     <use xlink:href="#STIXGeneral-Regular-7c" transform="translate(152.799973 0.703125)"/>
     <use xlink:href="#STIXGeneral-Italic-64" transform="translate(196.866377 0.703125)"/>
     <use xlink:href="#STIXGeneral-Italic-6f" transform="translate(246.866362 0.703125)"/>
     <use xlink:href="#STIXGeneral-Regular-28" transform="translate(296.866347 0.703125)"/>
     <use xlink:href="#STIXGeneral-Italic-58" transform="translate(330.166334 0.703125)"/>
     <use xlink:href="#STIXGeneral-Regular-32" transform="translate(391.266325 -12.525) scale(0.7)"/>
     <use xlink:href="#STIXGeneral-Regular-3d" transform="translate(445.115686 0.703125)"/>
     <use xlink:href="#STIXGeneral-Regular-31" transform="translate(528.055667 0.703125)"/>
     <use xlink:href="#STIXGeneral-Regular-29" transform="translate(578.055652 0.703125)"/>
     <use xlink:href="#STIXGeneral-Regular-5d" transform="translate(611.35564 0.703125)"/>
     <use xlink:href="#STIXGeneral-Regular-2212" transform="translate(659.095624 0.703125)"/>
     <use xlink:href="#STIXNonUnicode-Italic-e156" transform="translate(742.035605 0.703125)"/>
     <use xlink:href="#STIXGeneral-Regular-5b" transform="translate(805.935599 0.703125)"/>
     <use xlink:href="#STIXGeneral-Italic-59" transform="translate(839.235586 0.703125)"/>
     <use xlink:href="#STIXGeneral-Regular-7c" transform="translate(894.835577 0.703125)"/>
     <use xlink:href="#STIXGeneral-Italic-64" transform="translate(938.901982 0.703125)"/>
     <use xlink:href="#STIXGeneral-Italic-6f" transform="translate(988.901967 0.703125)"/>
     <use xlink:href="#STIXGeneral-Regular-28" transform="translate(1038.901951 0.703125)"/>
     <use xlink:href="#STIXGeneral-Italic-58" transform="translate(1072.201939 0.703125)"/>
     <use xlink:href="#STIXGeneral-Regular-32" transform="translate(1133.30193 -12.525) scale(0.7)"/>
     <use xlink:href="#STIXGeneral-Regular-3d" transform="translate(1187.151291 0.703125)"/>
     <use xlink:href="#STIXGeneral-Regular-30" transform="translate(1270.091272 0.703125)"/>
     <use xlink:href="#STIXGeneral-Regular-29" transform="translate(1320.091257 0.703125)"/>
     <use xlink:href="#STIXGeneral-Regular-5d" transform="translate(1353.391244 0.703125)"/>
    </g>
   </g>
  </g>
 </g>
 <defs>
  <clipPath id="p1d2b0db452">
   <rect x="85.974688" y="23.936719" width="199.285714" height="163.08"/>
  </clipPath>
  <clipPath id="ped8594e012">
   <rect x="404.83183" y="23.936719" width="199.285714" height="163.08"/>
  </clipPath>
  <clipPath id="pc5912f3dd4">
   <rect x="723.688973" y="23.936719" width="199.285714" height="163.08"/>
  </clipPath>
 </defs>
</svg>
