<?xml version="1.0" encoding="utf-8" standalone="no"?>
<!DOCTYPE svg PUBLIC "-//W3C//DTD SVG 1.1//EN"
  "http://www.w3.org/Graphics/SVG/1.1/DTD/svg11.dtd">
<svg xmlns:xlink="http://www.w3.org/1999/xlink" width="649.285pt" height="643.259937pt" viewBox="0 0 649.285 643.259937" xmlns="http://www.w3.org/2000/svg" version="1.1">
 <metadata>
  <rdf:RDF xmlns:dc="http://purl.org/dc/elements/1.1/" xmlns:cc="http://creativecommons.org/ns#" xmlns:rdf="http://www.w3.org/1999/02/22-rdf-syntax-ns#">
   <cc:Work>
    <dc:type rdf:resource="http://purl.org/dc/dcmitype/StillImage"/>
    <dc:date>2024-10-24T19:48:13.439319</dc:date>
    <dc:format>image/svg+xml</dc:format>
    <dc:creator>
     <cc:Agent>
      <dc:title>Matplotlib v3.7.0, https://matplotlib.org/</dc:title>
     </cc:Agent>
    </dc:creator>
   </cc:Work>
  </rdf:RDF>
 </metadata>
 <defs>
  <style type="text/css">*{stroke-linejoin: round; stroke-linecap: butt}</style>
 </defs>
 <g id="figure_1">
  <g id="patch_1">
   <path d="M 0 643.259937 
L 649.285 643.259937 
L 649.285 0 
L 0 0 
z
" style="fill: #ffffff"/>
  </g>
  <g id="axes_1">
   <g id="patch_2">
    <path d="M 69.065625 579.333375 
L 515.465625 579.333375 
L 515.465625 35.733375 
L 69.065625 35.733375 
z
" style="fill: #ffffff"/>
   </g>
   <g id="PathCollection_1"/>
   <g id="PathCollection_2">
    <path d="M 158.345625 579.333375 
L 247.625625 579.333375 
L 336.905625 579.333375 
L 426.185625 579.333375 
L 470.825625 579.333375 
L 426.185625 575.672769 
L 336.905625 577.503072 
L 247.625625 576.40489 
L 158.345625 577.503072 
L 69.065625 573.842466 
L 69.065625 579.333375 
z
" clip-path="url(#p4b6b31889c)" style="fill: #fed9c9"/>
   </g>
   <g id="PathCollection_3">
    <path d="M 158.345625 577.503072 
L 247.625625 576.40489 
L 336.905625 577.503072 
L 426.185625 575.672769 
L 470.825625 579.333375 
L 515.465625 579.333375 
L 515.465625 572.012163 
L 426.185625 566.521254 
L 336.905625 568.351557 
L 247.625625 569.083678 
L 158.345625 568.351557 
L 69.065625 566.97883 
L 69.065625 573.842466 
z
" clip-path="url(#p4b6b31889c)" style="fill: #fcbba1"/>
   </g>
   <g id="PathCollection_4">
    <path d="M 158.345625 568.351557 
L 247.625625 569.083678 
L 336.905625 568.351557 
L 426.185625 566.521254 
L 515.465625 572.012163 
L 515.465625 559.810143 
L 426.185625 557.369739 
L 426.185625 557.369739 
L 426.185625 557.369739 
L 336.905625 559.200042 
L 247.625625 561.762466 
L 158.345625 559.200042 
L 69.065625 560.115193 
L 69.065625 566.97883 
z
" clip-path="url(#p4b6b31889c)" style="fill: #fc9b7c"/>
   </g>
   <g id="PathCollection_5">
    <path d="M 158.345625 559.200042 
L 247.625625 561.762466 
L 336.905625 559.200042 
L 426.185625 557.369739 
L 426.185625 557.369739 
L 426.185625 557.369739 
L 515.465625 559.810143 
L 515.465625 557.369739 
L 515.465625 551.589834 
L 426.185625 551.87883 
L 336.905625 550.909846 
L 247.625625 551.87883 
L 158.345625 551.87883 
L 69.065625 549.882135 
L 69.065625 557.369739 
L 69.065625 560.115193 
z
" clip-path="url(#p4b6b31889c)" style="fill: #fb7a5a"/>
   </g>
   <g id="PathCollection_6">
    <path d="M 158.345625 551.87883 
L 247.625625 551.87883 
L 336.905625 550.909846 
L 426.185625 551.87883 
L 515.465625 551.589834 
L 515.465625 544.364954 
L 426.185625 546.38792 
L 336.905625 542.834979 
L 247.625625 538.151557 
L 158.345625 545.015193 
L 69.065625 537.402796 
L 69.065625 549.882135 
z
" clip-path="url(#p4b6b31889c)" style="fill: #f6583e"/>
   </g>
   <g id="PathCollection_7">
    <path d="M 158.345625 545.015193 
L 247.625625 538.151557 
L 336.905625 542.834979 
L 426.185625 546.38792 
L 515.465625 544.364954 
L 515.465625 537.140074 
L 426.185625 540.897011 
L 336.905625 534.760113 
L 283.337625 529.915193 
L 247.625625 525.339436 
L 225.305625 529.915193 
L 158.345625 538.151557 
L 91.385625 529.915193 
L 69.065625 518.933375 
L 69.065625 529.915193 
L 69.065625 537.402796 
z
" clip-path="url(#p4b6b31889c)" style="fill: #e83429"/>
   </g>
   <g id="PathCollection_8">
    <path d="M 158.345625 538.151557 
L 225.305625 529.915193 
L 247.625625 525.339436 
L 283.337625 529.915193 
L 336.905625 534.760113 
L 426.185625 540.897011 
L 515.465625 537.140074 
L 515.465625 529.915193 
L 515.465625 529.915193 
L 515.465625 529.915193 
L 426.185625 535.406102 
L 362.414196 529.915193 
L 336.905625 523.814183 
L 247.625625 513.900042 
L 169.505625 529.915193 
L 158.345625 531.28792 
L 147.185625 529.915193 
L 94.574196 502.460648 
L 69.065625 496.359638 
L 69.065625 502.460648 
L 69.065625 518.933375 
L 91.385625 529.915193 
z
" clip-path="url(#p4b6b31889c)" style="fill: #ca181d"/>
   </g>
   <g id="PathCollection_9">
    <path d="M 158.345625 531.28792 
L 169.505625 529.915193 
L 247.625625 513.900042 
L 336.905625 523.814183 
L 362.414196 529.915193 
L 426.185625 535.406102 
L 515.465625 529.915193 
L 515.465625 529.915193 
L 515.465625 510.304804 
L 426.185625 529.915193 
L 336.905625 508.561658 
L 247.625625 502.460648 
L 247.625625 502.460648 
L 158.345625 502.460648 
L 69.065625 481.107112 
L 69.065625 496.359638 
L 94.574196 502.460648 
L 147.185625 529.915193 
z
" clip-path="url(#p4b6b31889c)" style="fill: #ac1117"/>
   </g>
   <g id="PathCollection_10">
    <path d="M 336.905625 508.561658 
L 426.185625 529.915193 
L 515.465625 510.304804 
L 515.465625 502.460648 
L 515.465625 475.006102 
L 515.465625 447.551557 
L 515.465625 420.097011 
L 515.465625 392.642466 
L 515.465625 365.18792 
L 515.465625 337.733375 
L 515.465625 310.27883 
L 515.465625 282.824284 
L 515.465625 255.369739 
L 515.465625 227.915193 
L 515.465625 200.460648 
L 515.465625 173.006102 
L 515.465625 145.551557 
L 515.465625 118.097011 
L 515.465625 90.642466 
L 515.465625 63.18792 
L 515.465625 35.733375 
L 426.185625 35.733375 
L 336.905625 35.733375 
L 247.625625 35.733375 
L 158.345625 35.733375 
L 69.065625 35.733375 
L 69.065625 63.18792 
L 69.065625 90.642466 
L 69.065625 118.097011 
L 69.065625 145.551557 
L 69.065625 173.006102 
L 69.065625 200.460648 
L 69.065625 227.915193 
L 69.065625 255.369739 
L 69.065625 282.824284 
L 69.065625 310.27883 
L 69.065625 337.733375 
L 69.065625 365.18792 
L 69.065625 392.642466 
L 69.065625 420.097011 
L 69.065625 447.551557 
L 69.065625 475.006102 
L 69.065625 481.107112 
L 158.345625 502.460648 
L 247.625625 502.460648 
L 247.625625 502.460648 
z
" clip-path="url(#p4b6b31889c)" style="fill: #7e0610"/>
   </g>
   <g id="matplotlib.axis_1">
    <g id="xtick_1">
     <g id="line2d_1">
      <defs>
       <path id="m814b456d0d" d="M 0 0 
L 0 3.5 
" style="stroke: #000000; stroke-width: 0.8"/>
      </defs>
      <g>
       <use xlink:href="#m814b456d0d" x="69.065625" y="579.333375" style="stroke: #000000; stroke-width: 0.8"/>
      </g>
     </g>
     <g id="text_1">
      <!-- 0.5 -->
      <g transform="translate(50.995625 604.943687) scale(0.26 -0.26)">
       <defs>
        <path id="ArialMT-30" d="M 266 2259 
Q 266 3072 433 3567 
Q 600 4063 929 4331 
Q 1259 4600 1759 4600 
Q 2128 4600 2406 4451 
Q 2684 4303 2865 4023 
Q 3047 3744 3150 3342 
Q 3253 2941 3253 2259 
Q 3253 1453 3087 958 
Q 2922 463 2592 192 
Q 2263 -78 1759 -78 
Q 1097 -78 719 397 
Q 266 969 266 2259 
z
M 844 2259 
Q 844 1131 1108 757 
Q 1372 384 1759 384 
Q 2147 384 2411 759 
Q 2675 1134 2675 2259 
Q 2675 3391 2411 3762 
Q 2147 4134 1753 4134 
Q 1366 4134 1134 3806 
Q 844 3388 844 2259 
z
" transform="scale(0.015625)"/>
        <path id="ArialMT-2e" d="M 581 0 
L 581 641 
L 1222 641 
L 1222 0 
L 581 0 
z
" transform="scale(0.015625)"/>
        <path id="ArialMT-35" d="M 266 1200 
L 856 1250 
Q 922 819 1161 601 
Q 1400 384 1738 384 
Q 2144 384 2425 690 
Q 2706 997 2706 1503 
Q 2706 1984 2436 2262 
Q 2166 2541 1728 2541 
Q 1456 2541 1237 2417 
Q 1019 2294 894 2097 
L 366 2166 
L 809 4519 
L 3088 4519 
L 3088 3981 
L 1259 3981 
L 1013 2750 
Q 1425 3038 1878 3038 
Q 2478 3038 2890 2622 
Q 3303 2206 3303 1553 
Q 3303 931 2941 478 
Q 2500 -78 1738 -78 
Q 1113 -78 717 272 
Q 322 622 266 1200 
z
" transform="scale(0.015625)"/>
       </defs>
       <use xlink:href="#ArialMT-30"/>
       <use xlink:href="#ArialMT-2e" x="55.615234"/>
       <use xlink:href="#ArialMT-35" x="83.398438"/>
      </g>
     </g>
    </g>
    <g id="xtick_2">
     <g id="line2d_2">
      <g>
       <use xlink:href="#m814b456d0d" x="158.345625" y="579.333375" style="stroke: #000000; stroke-width: 0.8"/>
      </g>
     </g>
     <g id="text_2">
      <!-- 1.0 -->
      <g transform="translate(140.275625 604.943687) scale(0.26 -0.26)">
       <defs>
        <path id="ArialMT-31" d="M 2384 0 
L 1822 0 
L 1822 3584 
Q 1619 3391 1289 3197 
Q 959 3003 697 2906 
L 697 3450 
Q 1169 3672 1522 3987 
Q 1875 4303 2022 4600 
L 2384 4600 
L 2384 0 
z
" transform="scale(0.015625)"/>
       </defs>
       <use xlink:href="#ArialMT-31"/>
       <use xlink:href="#ArialMT-2e" x="55.615234"/>
       <use xlink:href="#ArialMT-30" x="83.398438"/>
      </g>
     </g>
    </g>
    <g id="xtick_3">
     <g id="line2d_3">
      <g>
       <use xlink:href="#m814b456d0d" x="247.625625" y="579.333375" style="stroke: #000000; stroke-width: 0.8"/>
      </g>
     </g>
     <g id="text_3">
      <!-- 1.5 -->
      <g transform="translate(229.555625 604.943687) scale(0.26 -0.26)">
       <use xlink:href="#ArialMT-31"/>
       <use xlink:href="#ArialMT-2e" x="55.615234"/>
       <use xlink:href="#ArialMT-35" x="83.398438"/>
      </g>
     </g>
    </g>
    <g id="xtick_4">
     <g id="line2d_4">
      <g>
       <use xlink:href="#m814b456d0d" x="336.905625" y="579.333375" style="stroke: #000000; stroke-width: 0.8"/>
      </g>
     </g>
     <g id="text_4">
      <!-- 2.0 -->
      <g transform="translate(318.835625 604.943687) scale(0.26 -0.26)">
       <defs>
        <path id="ArialMT-32" d="M 3222 541 
L 3222 0 
L 194 0 
Q 188 203 259 391 
Q 375 700 629 1000 
Q 884 1300 1366 1694 
Q 2113 2306 2375 2664 
Q 2638 3022 2638 3341 
Q 2638 3675 2398 3904 
Q 2159 4134 1775 4134 
Q 1369 4134 1125 3890 
Q 881 3647 878 3216 
L 300 3275 
Q 359 3922 746 4261 
Q 1134 4600 1788 4600 
Q 2447 4600 2831 4234 
Q 3216 3869 3216 3328 
Q 3216 3053 3103 2787 
Q 2991 2522 2730 2228 
Q 2469 1934 1863 1422 
Q 1356 997 1212 845 
Q 1069 694 975 541 
L 3222 541 
z
" transform="scale(0.015625)"/>
       </defs>
       <use xlink:href="#ArialMT-32"/>
       <use xlink:href="#ArialMT-2e" x="55.615234"/>
       <use xlink:href="#ArialMT-30" x="83.398438"/>
      </g>
     </g>
    </g>
    <g id="xtick_5">
     <g id="line2d_5">
      <g>
       <use xlink:href="#m814b456d0d" x="426.185625" y="579.333375" style="stroke: #000000; stroke-width: 0.8"/>
      </g>
     </g>
     <g id="text_5">
      <!-- 2.5 -->
      <g transform="translate(408.115625 604.943687) scale(0.26 -0.26)">
       <use xlink:href="#ArialMT-32"/>
       <use xlink:href="#ArialMT-2e" x="55.615234"/>
       <use xlink:href="#ArialMT-35" x="83.398438"/>
      </g>
     </g>
    </g>
    <g id="xtick_6">
     <g id="line2d_6">
      <g>
       <use xlink:href="#m814b456d0d" x="515.465625" y="579.333375" style="stroke: #000000; stroke-width: 0.8"/>
      </g>
     </g>
     <g id="text_6">
      <!-- 3.0 -->
      <g transform="translate(497.395625 604.943687) scale(0.26 -0.26)">
       <defs>
        <path id="ArialMT-33" d="M 269 1209 
L 831 1284 
Q 928 806 1161 595 
Q 1394 384 1728 384 
Q 2125 384 2398 659 
Q 2672 934 2672 1341 
Q 2672 1728 2419 1979 
Q 2166 2231 1775 2231 
Q 1616 2231 1378 2169 
L 1441 2663 
Q 1497 2656 1531 2656 
Q 1891 2656 2178 2843 
Q 2466 3031 2466 3422 
Q 2466 3731 2256 3934 
Q 2047 4138 1716 4138 
Q 1388 4138 1169 3931 
Q 950 3725 888 3313 
L 325 3413 
Q 428 3978 793 4289 
Q 1159 4600 1703 4600 
Q 2078 4600 2393 4439 
Q 2709 4278 2876 4000 
Q 3044 3722 3044 3409 
Q 3044 3113 2884 2869 
Q 2725 2625 2413 2481 
Q 2819 2388 3044 2092 
Q 3269 1797 3269 1353 
Q 3269 753 2831 336 
Q 2394 -81 1725 -81 
Q 1122 -81 723 278 
Q 325 638 269 1209 
z
" transform="scale(0.015625)"/>
       </defs>
       <use xlink:href="#ArialMT-33"/>
       <use xlink:href="#ArialMT-2e" x="55.615234"/>
       <use xlink:href="#ArialMT-30" x="83.398438"/>
      </g>
     </g>
    </g>
    <g id="text_7">
     <!-- coefficient -->
     <g transform="translate(238.449375 631.289937) scale(0.24 -0.24)">
      <defs>
       <path id="ArialMT-63" d="M 2588 1216 
L 3141 1144 
Q 3050 572 2676 248 
Q 2303 -75 1759 -75 
Q 1078 -75 664 370 
Q 250 816 250 1647 
Q 250 2184 428 2587 
Q 606 2991 970 3192 
Q 1334 3394 1763 3394 
Q 2303 3394 2647 3120 
Q 2991 2847 3088 2344 
L 2541 2259 
Q 2463 2594 2264 2762 
Q 2066 2931 1784 2931 
Q 1359 2931 1093 2626 
Q 828 2322 828 1663 
Q 828 994 1084 691 
Q 1341 388 1753 388 
Q 2084 388 2306 591 
Q 2528 794 2588 1216 
z
" transform="scale(0.015625)"/>
       <path id="ArialMT-6f" d="M 213 1659 
Q 213 2581 725 3025 
Q 1153 3394 1769 3394 
Q 2453 3394 2887 2945 
Q 3322 2497 3322 1706 
Q 3322 1066 3130 698 
Q 2938 331 2570 128 
Q 2203 -75 1769 -75 
Q 1072 -75 642 372 
Q 213 819 213 1659 
z
M 791 1659 
Q 791 1022 1069 705 
Q 1347 388 1769 388 
Q 2188 388 2466 706 
Q 2744 1025 2744 1678 
Q 2744 2294 2464 2611 
Q 2184 2928 1769 2928 
Q 1347 2928 1069 2612 
Q 791 2297 791 1659 
z
" transform="scale(0.015625)"/>
       <path id="ArialMT-65" d="M 2694 1069 
L 3275 997 
Q 3138 488 2766 206 
Q 2394 -75 1816 -75 
Q 1088 -75 661 373 
Q 234 822 234 1631 
Q 234 2469 665 2931 
Q 1097 3394 1784 3394 
Q 2450 3394 2872 2941 
Q 3294 2488 3294 1666 
Q 3294 1616 3291 1516 
L 816 1516 
Q 847 969 1125 678 
Q 1403 388 1819 388 
Q 2128 388 2347 550 
Q 2566 713 2694 1069 
z
M 847 1978 
L 2700 1978 
Q 2663 2397 2488 2606 
Q 2219 2931 1791 2931 
Q 1403 2931 1139 2672 
Q 875 2413 847 1978 
z
" transform="scale(0.015625)"/>
       <path id="ArialMT-66" d="M 556 0 
L 556 2881 
L 59 2881 
L 59 3319 
L 556 3319 
L 556 3672 
Q 556 4006 616 4169 
Q 697 4388 901 4523 
Q 1106 4659 1475 4659 
Q 1713 4659 2000 4603 
L 1916 4113 
Q 1741 4144 1584 4144 
Q 1328 4144 1222 4034 
Q 1116 3925 1116 3625 
L 1116 3319 
L 1763 3319 
L 1763 2881 
L 1116 2881 
L 1116 0 
L 556 0 
z
" transform="scale(0.015625)"/>
       <path id="ArialMT-69" d="M 425 3934 
L 425 4581 
L 988 4581 
L 988 3934 
L 425 3934 
z
M 425 0 
L 425 3319 
L 988 3319 
L 988 0 
L 425 0 
z
" transform="scale(0.015625)"/>
       <path id="ArialMT-6e" d="M 422 0 
L 422 3319 
L 928 3319 
L 928 2847 
Q 1294 3394 1984 3394 
Q 2284 3394 2536 3286 
Q 2788 3178 2913 3003 
Q 3038 2828 3088 2588 
Q 3119 2431 3119 2041 
L 3119 0 
L 2556 0 
L 2556 2019 
Q 2556 2363 2490 2533 
Q 2425 2703 2258 2804 
Q 2091 2906 1866 2906 
Q 1506 2906 1245 2678 
Q 984 2450 984 1813 
L 984 0 
L 422 0 
z
" transform="scale(0.015625)"/>
       <path id="ArialMT-74" d="M 1650 503 
L 1731 6 
Q 1494 -44 1306 -44 
Q 1000 -44 831 53 
Q 663 150 594 308 
Q 525 466 525 972 
L 525 2881 
L 113 2881 
L 113 3319 
L 525 3319 
L 525 4141 
L 1084 4478 
L 1084 3319 
L 1650 3319 
L 1650 2881 
L 1084 2881 
L 1084 941 
Q 1084 700 1114 631 
Q 1144 563 1211 522 
Q 1278 481 1403 481 
Q 1497 481 1650 503 
z
" transform="scale(0.015625)"/>
      </defs>
      <use xlink:href="#ArialMT-63"/>
      <use xlink:href="#ArialMT-6f" x="50"/>
      <use xlink:href="#ArialMT-65" x="105.615234"/>
      <use xlink:href="#ArialMT-66" x="161.230469"/>
      <use xlink:href="#ArialMT-66" x="187.263672"/>
      <use xlink:href="#ArialMT-69" x="215.046875"/>
      <use xlink:href="#ArialMT-63" x="237.263672"/>
      <use xlink:href="#ArialMT-69" x="287.263672"/>
      <use xlink:href="#ArialMT-65" x="309.480469"/>
      <use xlink:href="#ArialMT-6e" x="365.095703"/>
      <use xlink:href="#ArialMT-74" x="420.710938"/>
     </g>
    </g>
   </g>
   <g id="matplotlib.axis_2">
    <g id="ytick_1">
     <g id="line2d_7">
      <defs>
       <path id="m7042f09ff7" d="M 0 0 
L -3.5 0 
" style="stroke: #000000; stroke-width: 0.8"/>
      </defs>
      <g>
       <use xlink:href="#m7042f09ff7" x="69.065625" y="475.006102" style="stroke: #000000; stroke-width: 0.8"/>
      </g>
     </g>
     <g id="text_8">
      <!-- 2 -->
      <g transform="translate(47.607188 484.311259) scale(0.26 -0.26)">
       <use xlink:href="#ArialMT-32"/>
      </g>
     </g>
    </g>
    <g id="ytick_2">
     <g id="line2d_8">
      <g>
       <use xlink:href="#m7042f09ff7" x="69.065625" y="365.18792" style="stroke: #000000; stroke-width: 0.8"/>
      </g>
     </g>
     <g id="text_9">
      <!-- 4 -->
      <g transform="translate(47.607188 374.493077) scale(0.26 -0.26)">
       <defs>
        <path id="ArialMT-34" d="M 2069 0 
L 2069 1097 
L 81 1097 
L 81 1613 
L 2172 4581 
L 2631 4581 
L 2631 1613 
L 3250 1613 
L 3250 1097 
L 2631 1097 
L 2631 0 
L 2069 0 
z
M 2069 1613 
L 2069 3678 
L 634 1613 
L 2069 1613 
z
" transform="scale(0.015625)"/>
       </defs>
       <use xlink:href="#ArialMT-34"/>
      </g>
     </g>
    </g>
    <g id="ytick_3">
     <g id="line2d_9">
      <g>
       <use xlink:href="#m7042f09ff7" x="69.065625" y="255.369739" style="stroke: #000000; stroke-width: 0.8"/>
      </g>
     </g>
     <g id="text_10">
      <!-- 6 -->
      <g transform="translate(47.607188 264.674895) scale(0.26 -0.26)">
       <defs>
        <path id="ArialMT-36" d="M 3184 3459 
L 2625 3416 
Q 2550 3747 2413 3897 
Q 2184 4138 1850 4138 
Q 1581 4138 1378 3988 
Q 1113 3794 959 3422 
Q 806 3050 800 2363 
Q 1003 2672 1297 2822 
Q 1591 2972 1913 2972 
Q 2475 2972 2870 2558 
Q 3266 2144 3266 1488 
Q 3266 1056 3080 686 
Q 2894 316 2569 119 
Q 2244 -78 1831 -78 
Q 1128 -78 684 439 
Q 241 956 241 2144 
Q 241 3472 731 4075 
Q 1159 4600 1884 4600 
Q 2425 4600 2770 4297 
Q 3116 3994 3184 3459 
z
M 888 1484 
Q 888 1194 1011 928 
Q 1134 663 1356 523 
Q 1578 384 1822 384 
Q 2178 384 2434 671 
Q 2691 959 2691 1453 
Q 2691 1928 2437 2201 
Q 2184 2475 1800 2475 
Q 1419 2475 1153 2201 
Q 888 1928 888 1484 
z
" transform="scale(0.015625)"/>
       </defs>
       <use xlink:href="#ArialMT-36"/>
      </g>
     </g>
    </g>
    <g id="ytick_4">
     <g id="line2d_10">
      <g>
       <use xlink:href="#m7042f09ff7" x="69.065625" y="145.551557" style="stroke: #000000; stroke-width: 0.8"/>
      </g>
     </g>
     <g id="text_11">
      <!-- 8 -->
      <g transform="translate(47.607188 154.856713) scale(0.26 -0.26)">
       <defs>
        <path id="ArialMT-38" d="M 1131 2484 
Q 781 2613 612 2850 
Q 444 3088 444 3419 
Q 444 3919 803 4259 
Q 1163 4600 1759 4600 
Q 2359 4600 2725 4251 
Q 3091 3903 3091 3403 
Q 3091 3084 2923 2848 
Q 2756 2613 2416 2484 
Q 2838 2347 3058 2040 
Q 3278 1734 3278 1309 
Q 3278 722 2862 322 
Q 2447 -78 1769 -78 
Q 1091 -78 675 323 
Q 259 725 259 1325 
Q 259 1772 486 2073 
Q 713 2375 1131 2484 
z
M 1019 3438 
Q 1019 3113 1228 2906 
Q 1438 2700 1772 2700 
Q 2097 2700 2305 2904 
Q 2513 3109 2513 3406 
Q 2513 3716 2298 3927 
Q 2084 4138 1766 4138 
Q 1444 4138 1231 3931 
Q 1019 3725 1019 3438 
z
M 838 1322 
Q 838 1081 952 856 
Q 1066 631 1291 507 
Q 1516 384 1775 384 
Q 2178 384 2440 643 
Q 2703 903 2703 1303 
Q 2703 1709 2433 1975 
Q 2163 2241 1756 2241 
Q 1359 2241 1098 1978 
Q 838 1716 838 1322 
z
" transform="scale(0.015625)"/>
       </defs>
       <use xlink:href="#ArialMT-38"/>
      </g>
     </g>
    </g>
    <g id="ytick_5">
     <g id="line2d_11">
      <g>
       <use xlink:href="#m7042f09ff7" x="69.065625" y="35.733375" style="stroke: #000000; stroke-width: 0.8"/>
      </g>
     </g>
     <g id="text_12">
      <!-- 10 -->
      <g transform="translate(33.14875 45.038531) scale(0.26 -0.26)">
       <use xlink:href="#ArialMT-31"/>
       <use xlink:href="#ArialMT-30" x="55.615234"/>
      </g>
     </g>
    </g>
    <g id="text_13">
     <!-- Z -->
     <g transform="translate(24.37875 314.86275) rotate(-90) scale(0.24 -0.24)">
      <defs>
       <path id="ArialMT-5a" d="M 128 0 
L 128 563 
L 2475 3497 
Q 2725 3809 2950 4041 
L 394 4041 
L 394 4581 
L 3675 4581 
L 3675 4041 
L 1103 863 
L 825 541 
L 3750 541 
L 3750 0 
L 128 0 
z
" transform="scale(0.015625)"/>
      </defs>
      <use xlink:href="#ArialMT-5a"/>
     </g>
    </g>
   </g>
   <g id="line2d_12">
    <path d="M 69.065625 557.369739 
L 515.465625 557.369739 
" clip-path="url(#p4b6b31889c)" style="fill: none; stroke: #0000ff; stroke-width: 4; stroke-linecap: square"/>
   </g>
   <g id="patch_3">
    <path d="M 69.065625 579.333375 
L 69.065625 35.733375 
" style="fill: none; stroke: #000000; stroke-width: 0.8; stroke-linejoin: miter; stroke-linecap: square"/>
   </g>
   <g id="patch_4">
    <path d="M 515.465625 579.333375 
L 515.465625 35.733375 
" style="fill: none; stroke: #000000; stroke-width: 0.8; stroke-linejoin: miter; stroke-linecap: square"/>
   </g>
   <g id="patch_5">
    <path d="M 69.065625 579.333375 
L 515.465625 579.333375 
" style="fill: none; stroke: #000000; stroke-width: 0.8; stroke-linejoin: miter; stroke-linecap: square"/>
   </g>
   <g id="patch_6">
    <path d="M 69.065625 35.733375 
L 515.465625 35.733375 
" style="fill: none; stroke: #000000; stroke-width: 0.8; stroke-linejoin: miter; stroke-linecap: square"/>
   </g>
   <g id="text_14">
    <!-- root cause: $X_{1}$ -->
    <g transform="translate(194.921625 29.532375) scale(0.312 -0.312)">
     <defs>
      <path id="ArialMT-72" d="M 416 0 
L 416 3319 
L 922 3319 
L 922 2816 
Q 1116 3169 1280 3281 
Q 1444 3394 1641 3394 
Q 1925 3394 2219 3213 
L 2025 2691 
Q 1819 2813 1613 2813 
Q 1428 2813 1281 2702 
Q 1134 2591 1072 2394 
Q 978 2094 978 1738 
L 978 0 
L 416 0 
z
" transform="scale(0.015625)"/>
      <path id="ArialMT-20" transform="scale(0.015625)"/>
      <path id="ArialMT-61" d="M 2588 409 
Q 2275 144 1986 34 
Q 1697 -75 1366 -75 
Q 819 -75 525 192 
Q 231 459 231 875 
Q 231 1119 342 1320 
Q 453 1522 633 1644 
Q 813 1766 1038 1828 
Q 1203 1872 1538 1913 
Q 2219 1994 2541 2106 
Q 2544 2222 2544 2253 
Q 2544 2597 2384 2738 
Q 2169 2928 1744 2928 
Q 1347 2928 1158 2789 
Q 969 2650 878 2297 
L 328 2372 
Q 403 2725 575 2942 
Q 747 3159 1072 3276 
Q 1397 3394 1825 3394 
Q 2250 3394 2515 3294 
Q 2781 3194 2906 3042 
Q 3031 2891 3081 2659 
Q 3109 2516 3109 2141 
L 3109 1391 
Q 3109 606 3145 398 
Q 3181 191 3288 0 
L 2700 0 
Q 2613 175 2588 409 
z
M 2541 1666 
Q 2234 1541 1622 1453 
Q 1275 1403 1131 1340 
Q 988 1278 909 1158 
Q 831 1038 831 891 
Q 831 666 1001 516 
Q 1172 366 1500 366 
Q 1825 366 2078 508 
Q 2331 650 2450 897 
Q 2541 1088 2541 1459 
L 2541 1666 
z
" transform="scale(0.015625)"/>
      <path id="ArialMT-75" d="M 2597 0 
L 2597 488 
Q 2209 -75 1544 -75 
Q 1250 -75 995 37 
Q 741 150 617 320 
Q 494 491 444 738 
Q 409 903 409 1263 
L 409 3319 
L 972 3319 
L 972 1478 
Q 972 1038 1006 884 
Q 1059 663 1231 536 
Q 1403 409 1656 409 
Q 1909 409 2131 539 
Q 2353 669 2445 892 
Q 2538 1116 2538 1541 
L 2538 3319 
L 3100 3319 
L 3100 0 
L 2597 0 
z
" transform="scale(0.015625)"/>
      <path id="ArialMT-73" d="M 197 991 
L 753 1078 
Q 800 744 1014 566 
Q 1228 388 1613 388 
Q 2000 388 2187 545 
Q 2375 703 2375 916 
Q 2375 1106 2209 1216 
Q 2094 1291 1634 1406 
Q 1016 1563 777 1677 
Q 538 1791 414 1992 
Q 291 2194 291 2438 
Q 291 2659 392 2848 
Q 494 3038 669 3163 
Q 800 3259 1026 3326 
Q 1253 3394 1513 3394 
Q 1903 3394 2198 3281 
Q 2494 3169 2634 2976 
Q 2775 2784 2828 2463 
L 2278 2388 
Q 2241 2644 2061 2787 
Q 1881 2931 1553 2931 
Q 1166 2931 1000 2803 
Q 834 2675 834 2503 
Q 834 2394 903 2306 
Q 972 2216 1119 2156 
Q 1203 2125 1616 2013 
Q 2213 1853 2448 1751 
Q 2684 1650 2818 1456 
Q 2953 1263 2953 975 
Q 2953 694 2789 445 
Q 2625 197 2315 61 
Q 2006 -75 1616 -75 
Q 969 -75 630 194 
Q 291 463 197 991 
z
" transform="scale(0.015625)"/>
      <path id="ArialMT-3a" d="M 578 2678 
L 578 3319 
L 1219 3319 
L 1219 2678 
L 578 2678 
z
M 578 0 
L 578 641 
L 1219 641 
L 1219 0 
L 578 0 
z
" transform="scale(0.015625)"/>
      <path id="STIXGeneral-Italic-58" d="M 4192 4179 
L 4192 4077 
Q 3981 4006 3805 3875 
Q 3629 3744 3392 3469 
L 2310 2227 
L 2957 595 
Q 3072 307 3187 224 
Q 3302 141 3629 102 
L 3629 0 
L 1894 0 
L 1894 102 
Q 2170 109 2278 163 
Q 2387 218 2387 339 
Q 2387 442 2298 666 
L 1869 1722 
L 902 621 
Q 755 454 755 314 
Q 755 102 1178 102 
L 1178 0 
L -186 0 
L -186 102 
Q 70 147 300 361 
Q 531 576 1222 1382 
L 1754 2003 
L 1094 3635 
Q 998 3872 880 3961 
Q 762 4051 486 4077 
L 486 4179 
L 2170 4179 
L 2170 4077 
Q 1907 4045 1811 3990 
Q 1715 3936 1715 3814 
Q 1715 3706 1818 3456 
L 2195 2515 
L 3123 3584 
Q 3258 3738 3258 3859 
Q 3258 4058 2867 4077 
L 2867 4179 
L 4192 4179 
z
" transform="scale(0.015625)"/>
      <path id="STIXGeneral-Regular-31" d="M 2522 0 
L 755 0 
L 755 96 
Q 1107 115 1235 227 
Q 1363 339 1363 608 
L 1363 3482 
Q 1363 3795 1171 3795 
Q 1082 3795 883 3718 
L 710 3654 
L 710 3744 
L 1856 4326 
L 1914 4307 
L 1914 486 
Q 1914 275 2042 185 
Q 2170 96 2522 96 
L 2522 0 
z
" transform="scale(0.015625)"/>
     </defs>
     <use xlink:href="#ArialMT-72" transform="translate(0 0.03125)"/>
     <use xlink:href="#ArialMT-6f" transform="translate(33.300781 0.03125)"/>
     <use xlink:href="#ArialMT-6f" transform="translate(88.916016 0.03125)"/>
     <use xlink:href="#ArialMT-74" transform="translate(144.53125 0.03125)"/>
     <use xlink:href="#ArialMT-20" transform="translate(172.314453 0.03125)"/>
     <use xlink:href="#ArialMT-63" transform="translate(200.097656 0.03125)"/>
     <use xlink:href="#ArialMT-61" transform="translate(250.097656 0.03125)"/>
     <use xlink:href="#ArialMT-75" transform="translate(305.712891 0.03125)"/>
     <use xlink:href="#ArialMT-73" transform="translate(361.328125 0.03125)"/>
     <use xlink:href="#ArialMT-65" transform="translate(411.328125 0.03125)"/>
     <use xlink:href="#ArialMT-3a" transform="translate(466.943359 0.03125)"/>
     <use xlink:href="#ArialMT-20" transform="translate(494.726562 0.03125)"/>
     <use xlink:href="#STIXGeneral-Italic-58" transform="translate(522.509766 0.03125)"/>
     <use xlink:href="#STIXGeneral-Regular-31" transform="translate(583.609756 -13.196875) scale(0.7)"/>
    </g>
   </g>
  </g>
  <g id="axes_2">
   <g id="patch_7">
    <path d="M 543.365625 579.333375 
L 570.545625 579.333375 
L 570.545625 35.733375 
L 543.365625 35.733375 
z
" style="fill: #ffffff"/>
   </g>
   <g id="QuadMesh_1">
    <path d="M 543.365625 579.333375 
L 570.545625 579.333375 
L 570.545625 524.973375 
L 543.365625 524.973375 
L 543.365625 579.333375 
" clip-path="url(#pf7fc4fb144)" style="fill: #ffede5"/>
    <path d="M 543.365625 524.973375 
L 570.545625 524.973375 
L 570.545625 470.613375 
L 543.365625 470.613375 
L 543.365625 524.973375 
" clip-path="url(#pf7fc4fb144)" style="fill: #fed9c9"/>
    <path d="M 543.365625 470.613375 
L 570.545625 470.613375 
L 570.545625 416.253375 
L 543.365625 416.253375 
L 543.365625 470.613375 
" clip-path="url(#pf7fc4fb144)" style="fill: #fcbba1"/>
    <path d="M 543.365625 416.253375 
L 570.545625 416.253375 
L 570.545625 361.893375 
L 543.365625 361.893375 
L 543.365625 416.253375 
" clip-path="url(#pf7fc4fb144)" style="fill: #fc9b7c"/>
    <path d="M 543.365625 361.893375 
L 570.545625 361.893375 
L 570.545625 307.533375 
L 543.365625 307.533375 
L 543.365625 361.893375 
" clip-path="url(#pf7fc4fb144)" style="fill: #fb7a5a"/>
    <path d="M 543.365625 307.533375 
L 570.545625 307.533375 
L 570.545625 253.173375 
L 543.365625 253.173375 
L 543.365625 307.533375 
" clip-path="url(#pf7fc4fb144)" style="fill: #f6583e"/>
    <path d="M 543.365625 253.173375 
L 570.545625 253.173375 
L 570.545625 198.813375 
L 543.365625 198.813375 
L 543.365625 253.173375 
" clip-path="url(#pf7fc4fb144)" style="fill: #e83429"/>
    <path d="M 543.365625 198.813375 
L 570.545625 198.813375 
L 570.545625 144.453375 
L 543.365625 144.453375 
L 543.365625 198.813375 
" clip-path="url(#pf7fc4fb144)" style="fill: #ca181d"/>
    <path d="M 543.365625 144.453375 
L 570.545625 144.453375 
L 570.545625 90.093375 
L 543.365625 90.093375 
L 543.365625 144.453375 
" clip-path="url(#pf7fc4fb144)" style="fill: #ac1117"/>
    <path d="M 543.365625 90.093375 
L 570.545625 90.093375 
L 570.545625 35.733375 
L 543.365625 35.733375 
L 543.365625 90.093375 
" clip-path="url(#pf7fc4fb144)" style="fill: #7e0610"/>
   </g>
   <g id="matplotlib.axis_3"/>
   <g id="matplotlib.axis_4">
    <g id="ytick_6">
     <g id="line2d_13">
      <defs>
       <path id="mb67c3a7163" d="M 0 0 
L 3.5 0 
" style="stroke: #000000; stroke-width: 0.8"/>
      </defs>
      <g>
       <use xlink:href="#mb67c3a7163" x="570.545625" y="579.333375" style="stroke: #000000; stroke-width: 0.8"/>
      </g>
     </g>
     <g id="text_15">
      <!-- 0.0 -->
      <g transform="translate(577.545625 588.638531) scale(0.26 -0.26)">
       <use xlink:href="#ArialMT-30"/>
       <use xlink:href="#ArialMT-2e" x="55.615234"/>
       <use xlink:href="#ArialMT-30" x="83.398438"/>
      </g>
     </g>
    </g>
    <g id="ytick_7">
     <g id="line2d_14">
      <g>
       <use xlink:href="#mb67c3a7163" x="570.545625" y="470.613375" style="stroke: #000000; stroke-width: 0.8"/>
      </g>
     </g>
     <g id="text_16">
      <!-- 0.2 -->
      <g transform="translate(577.545625 479.918531) scale(0.26 -0.26)">
       <use xlink:href="#ArialMT-30"/>
       <use xlink:href="#ArialMT-2e" x="55.615234"/>
       <use xlink:href="#ArialMT-32" x="83.398438"/>
      </g>
     </g>
    </g>
    <g id="ytick_8">
     <g id="line2d_15">
      <g>
       <use xlink:href="#mb67c3a7163" x="570.545625" y="361.893375" style="stroke: #000000; stroke-width: 0.8"/>
      </g>
     </g>
     <g id="text_17">
      <!-- 0.4 -->
      <g transform="translate(577.545625 371.198531) scale(0.26 -0.26)">
       <use xlink:href="#ArialMT-30"/>
       <use xlink:href="#ArialMT-2e" x="55.615234"/>
       <use xlink:href="#ArialMT-34" x="83.398438"/>
      </g>
     </g>
    </g>
    <g id="ytick_9">
     <g id="line2d_16">
      <g>
       <use xlink:href="#mb67c3a7163" x="570.545625" y="253.173375" style="stroke: #000000; stroke-width: 0.8"/>
      </g>
     </g>
     <g id="text_18">
      <!-- 0.6 -->
      <g transform="translate(577.545625 262.478531) scale(0.26 -0.26)">
       <use xlink:href="#ArialMT-30"/>
       <use xlink:href="#ArialMT-2e" x="55.615234"/>
       <use xlink:href="#ArialMT-36" x="83.398438"/>
      </g>
     </g>
    </g>
    <g id="ytick_10">
     <g id="line2d_17">
      <g>
       <use xlink:href="#mb67c3a7163" x="570.545625" y="144.453375" style="stroke: #000000; stroke-width: 0.8"/>
      </g>
     </g>
     <g id="text_19">
      <!-- 0.8 -->
      <g transform="translate(577.545625 153.758531) scale(0.26 -0.26)">
       <use xlink:href="#ArialMT-30"/>
       <use xlink:href="#ArialMT-2e" x="55.615234"/>
       <use xlink:href="#ArialMT-38" x="83.398438"/>
      </g>
     </g>
    </g>
    <g id="ytick_11">
     <g id="line2d_18">
      <g>
       <use xlink:href="#mb67c3a7163" x="570.545625" y="35.733375" style="stroke: #000000; stroke-width: 0.8"/>
      </g>
     </g>
     <g id="text_20">
      <!-- 1.0 -->
      <g transform="translate(577.545625 45.038531) scale(0.26 -0.26)">
       <use xlink:href="#ArialMT-31"/>
       <use xlink:href="#ArialMT-2e" x="55.615234"/>
       <use xlink:href="#ArialMT-30" x="83.398438"/>
      </g>
     </g>
    </g>
    <g id="text_21">
     <!-- accuracy (a.u.) -->
     <g transform="translate(636.612813 393.499937) rotate(-90) scale(0.26 -0.26)">
      <defs>
       <path id="ArialMT-79" d="M 397 -1278 
L 334 -750 
Q 519 -800 656 -800 
Q 844 -800 956 -737 
Q 1069 -675 1141 -563 
Q 1194 -478 1313 -144 
Q 1328 -97 1363 -6 
L 103 3319 
L 709 3319 
L 1400 1397 
Q 1534 1031 1641 628 
Q 1738 1016 1872 1384 
L 2581 3319 
L 3144 3319 
L 1881 -56 
Q 1678 -603 1566 -809 
Q 1416 -1088 1222 -1217 
Q 1028 -1347 759 -1347 
Q 597 -1347 397 -1278 
z
" transform="scale(0.015625)"/>
       <path id="ArialMT-28" d="M 1497 -1347 
Q 1031 -759 709 28 
Q 388 816 388 1659 
Q 388 2403 628 3084 
Q 909 3875 1497 4659 
L 1900 4659 
Q 1522 4009 1400 3731 
Q 1209 3300 1100 2831 
Q 966 2247 966 1656 
Q 966 153 1900 -1347 
L 1497 -1347 
z
" transform="scale(0.015625)"/>
       <path id="ArialMT-29" d="M 791 -1347 
L 388 -1347 
Q 1322 153 1322 1656 
Q 1322 2244 1188 2822 
Q 1081 3291 891 3722 
Q 769 4003 388 4659 
L 791 4659 
Q 1378 3875 1659 3084 
Q 1900 2403 1900 1659 
Q 1900 816 1576 28 
Q 1253 -759 791 -1347 
z
" transform="scale(0.015625)"/>
      </defs>
      <use xlink:href="#ArialMT-61"/>
      <use xlink:href="#ArialMT-63" x="55.615234"/>
      <use xlink:href="#ArialMT-63" x="105.615234"/>
      <use xlink:href="#ArialMT-75" x="155.615234"/>
      <use xlink:href="#ArialMT-72" x="211.230469"/>
      <use xlink:href="#ArialMT-61" x="244.53125"/>
      <use xlink:href="#ArialMT-63" x="300.146484"/>
      <use xlink:href="#ArialMT-79" x="350.146484"/>
      <use xlink:href="#ArialMT-20" x="400.146484"/>
      <use xlink:href="#ArialMT-28" x="427.929688"/>
      <use xlink:href="#ArialMT-61" x="461.230469"/>
      <use xlink:href="#ArialMT-2e" x="516.845703"/>
      <use xlink:href="#ArialMT-75" x="544.628906"/>
      <use xlink:href="#ArialMT-2e" x="600.244141"/>
      <use xlink:href="#ArialMT-29" x="628.027344"/>
     </g>
    </g>
   </g>
   <g id="LineCollection_1"/>
   <g id="patch_8">
    <path d="M 543.365625 579.333375 
L 556.955625 579.333375 
L 570.545625 579.333375 
L 570.545625 35.733375 
L 556.955625 35.733375 
L 543.365625 35.733375 
L 543.365625 579.333375 
z
" style="fill: none; stroke: #000000; stroke-width: 0.8; stroke-linejoin: miter; stroke-linecap: square"/>
   </g>
  </g>
 </g>
 <defs>
  <clipPath id="p4b6b31889c">
   <rect x="69.065625" y="35.733375" width="446.4" height="543.6"/>
  </clipPath>
  <clipPath id="pf7fc4fb144">
   <rect x="543.365625" y="35.733375" width="27.18" height="543.6"/>
  </clipPath>
 </defs>
</svg>
